<svg width="51" height="36" viewBox="0 0 51 36" fill="none" xmlns="http://www.w3.org/2000/svg">
<g id="logo-bissell-grey">
<g id="Group">
<path id="Vector" d="M48.5736 15.1246C48.7353 15.1246 48.8301 15.1462 48.8301 15.2863C48.8258 15.3855 48.7611 15.4243 48.634 15.4264H48.287L48.2892 15.1225H48.5736V15.1246ZM48.2892 15.6506H48.4874L48.7568 16.1399L49.078 16.1378L48.7849 15.6204C48.9917 15.6032 49.1124 15.5126 49.1124 15.2798C49.1124 15.0017 48.953 14.9069 48.6986 14.8983L48.0025 14.9004V16.1399L48.287 16.1378L48.2892 15.6506ZM48.5262 14.6482C49.0435 14.6482 49.3969 14.9888 49.3991 15.4997C49.3991 16.0171 49.0435 16.3814 48.5305 16.3814C48.0155 16.3835 47.6749 16.03 47.6728 15.5169C47.6706 15.0017 48.009 14.6482 48.5262 14.6482ZM48.5327 14.3701C47.7202 14.3723 47.3818 14.9867 47.3818 15.5191C47.3861 16.0623 47.7288 16.6616 48.5349 16.6616C49.2245 16.6595 49.6857 16.1421 49.6857 15.5148C49.6836 14.9177 49.2849 14.368 48.5327 14.3701Z" fill="#787878"/>
</g>
<path id="Vector_2" d="M11.8926 17.0173L13.2245 17.0151L13.2374 23.3119L11.899 23.3162L11.8926 17.0173Z" fill="#787878"/>
<path id="Vector_3" d="M11.8906 14.4563L13.2225 14.4541L13.2268 16.4481L11.8906 16.4503V14.4563Z" fill="#787878"/>
<path id="Vector_4" d="M42.623 14.413L43.9549 14.4109L43.97 23.2686L42.6295 23.2708L42.623 14.413Z" fill="#787878"/>
<path id="Vector_5" d="M46.2235 14.4076L44.8916 14.4099L44.9069 23.2676L46.2388 23.2653L46.2235 14.4076Z" fill="#787878"/>
<path id="Vector_6" d="M8.36921 19.5242C8.83472 19.5242 9.21188 19.2052 9.20326 18.7482C9.20326 18.2912 8.83041 17.9743 8.3649 17.9765L2.99636 17.9851V19.5393L8.36921 19.5242ZM8.57826 22.3719C9.11921 22.3719 9.56317 21.9882 9.56317 21.4493C9.56317 20.9125 9.1149 20.4727 8.57179 20.4749L2.99636 20.4835V22.3848L8.57826 22.3719ZM1.66016 17.0301L9.06533 17.0215C10.3046 17.0193 10.658 17.998 10.6386 18.5865C10.6171 19.1729 10.3821 19.7075 10.0459 19.8692C10.658 20.1559 11.0502 20.8996 11.0395 21.5183C10.9856 23.1911 9.3649 23.3204 8.67955 23.3204L1.67309 23.329L1.66016 17.0301Z" fill="#787878"/>
<path id="Vector_7" d="M35.4374 16.9849C34.9503 16.9849 33.7865 17.2393 33.7671 18.3387C33.7477 19.2829 34.2542 19.7097 34.5753 19.8153C34.1615 19.9899 33.7844 20.7207 33.7865 21.3609C33.7865 22.0012 34.0258 23.2817 36.1098 23.2795L41.8081 23.273L41.8038 22.3289L36.265 22.3332C35.7197 22.3353 35.2758 21.9538 35.2779 21.4127C35.2715 20.8759 35.7154 20.4383 36.265 20.4383L41.515 20.4297L41.5107 19.4833L36.1335 19.492C35.6658 19.4941 35.2887 19.1686 35.2887 18.7095C35.2801 18.246 35.6637 17.9248 36.1314 17.9248L41.7995 17.9162L41.8016 16.9741L35.4374 16.9849Z" fill="#787878"/>
<path id="Vector_8" d="M31.384 18.9661L32.7396 18.9639C32.7374 17.414 32.0327 16.9699 30.121 16.9915L26.4292 16.9958C25.5995 16.9958 24.1447 17.373 24.1426 18.6535C24.1469 19.934 24.634 20.4513 26.1296 20.4492L30.5434 20.4427C31.0456 20.4406 31.565 20.7596 31.5671 21.3481C31.5693 21.9345 31.2676 22.3613 30.343 22.3462L26.8689 22.3505C26.4163 22.3505 25.4788 22.2988 25.4788 21.3179L24.1447 21.3201C24.149 22.0875 24.3064 23.2947 26.343 23.2925L30.7072 23.2861C31.5693 23.2861 32.9702 22.8743 32.9702 21.2921C32.968 19.7098 31.6512 19.4942 30.912 19.4964L26.5025 19.5028C25.7827 19.5028 25.5477 19.0588 25.5477 18.7225C25.5477 18.3819 25.7805 17.9421 26.5025 17.94L30.3387 17.9335C30.9723 17.9357 31.384 18.1836 31.384 18.9661Z" fill="#787878"/>
<path id="Vector_9" d="M21.8556 18.9661L23.2112 18.9639C23.2091 17.414 22.5043 16.9699 20.5927 16.9915L16.9009 16.9958C16.0712 16.9958 14.6164 17.373 14.6143 18.6535C14.6186 19.934 15.1056 20.4513 16.6013 20.4492L21.0151 20.4427C21.5173 20.4406 22.0388 20.7596 22.0388 21.3481C22.041 21.9345 21.7393 22.3613 20.8147 22.3462L17.3427 22.3505C16.8901 22.3505 15.9526 22.2988 15.9526 21.3179L14.6186 21.3201C14.6229 22.0875 14.7802 23.2947 16.8168 23.2925L21.1811 23.2861C22.0431 23.2861 23.444 22.8743 23.444 21.2921C23.4418 19.7098 22.125 19.4942 21.3858 19.4964L16.9742 19.5028C16.2543 19.5028 16.0194 19.0588 16.0194 18.7225C16.0194 18.3819 16.25 17.9421 16.9742 17.94L20.8104 17.9335C21.444 17.9357 21.8556 18.1836 21.8556 18.9661Z" fill="#787878"/>
<path id="Vector_10" d="M42.2521 34.5881C44.3318 34.5838 43.4978 32.62 43.1249 31.9582C42.5667 30.9946 39.6917 25.8403 39.6917 25.8403L8.6896 25.8856C8.6896 25.8856 5.81891 31.0485 5.26934 32.0142C4.89434 32.676 4.05167 34.586 6.1271 34.5838L42.2521 34.5881Z" fill="#787878"/>
<path id="Vector_11" d="M14.5439 14.5058L33.3435 14.5015C33.3435 14.5015 28.6323 5.85071 27.5052 3.86101C26.4836 2.04808 25.8629 1.16856 23.878 1.17287C21.8952 1.17502 21.3414 2.0567 20.2896 3.91706C19.2638 5.73646 14.5439 14.5058 14.5439 14.5058Z" fill="#787878"/>
</g>
</svg>
