<svg width="116" height="24" viewBox="0 0 116 24" fill="none" xmlns="http://www.w3.org/2000/svg">
<g id="logo-microsoft-grey" clip-path="url(#clip0_3771_398)">
<path id="Vector" fill-rule="evenodd" clip-rule="evenodd" d="M115.194 8.84244V10.8979H112.588V15.7906C112.588 16.4275 112.661 16.8907 112.907 17.1368C113.139 17.4552 113.544 17.5276 114.007 17.5276C114.079 17.5276 114.326 17.5276 114.485 17.4552C114.716 17.3828 114.876 17.296 115.035 17.2236L115.107 17.1512V19.1199C114.948 19.1923 114.716 19.2791 114.311 19.3515C114.152 19.3515 113.978 19.366 113.804 19.3949C113.631 19.4094 113.443 19.4383 113.298 19.4383C111.17 19.4383 110.142 18.3382 110.142 16.1235V10.84H106.436V19.2067H103.903V10.84H102.166V8.87139H103.903V7.45281C103.903 6.74352 104.063 6.10661 104.381 5.55655C104.699 4.91964 105.177 4.52881 105.727 4.21035C106.277 3.89189 106.987 3.73267 107.696 3.73267C108.333 3.73267 108.796 3.80504 109.114 3.89189H109.187V6.01976L109.114 5.94738C108.724 5.78815 108.318 5.71578 108.014 5.71578C107.464 5.71578 107.073 5.87501 106.827 6.19346C106.596 6.51192 106.436 6.90275 106.436 7.53966V8.88586H110.142V6.51192H110.215L112.588 5.80263H112.661V8.88586H115.194V8.84244ZM50.533 4.89069C50.7646 4.65908 51.1699 4.49986 51.5607 4.49986C52.0384 4.49986 52.3569 4.65908 52.6609 4.89069C52.8925 5.20914 53.0517 5.5276 53.0517 5.91843C53.0517 6.30926 52.8925 6.71457 52.574 6.94618C52.3424 7.17778 51.9371 7.33701 51.5463 7.33701C51.1554 7.33701 50.837 7.17778 50.5185 6.94618C50.2001 6.62772 50.0408 6.30926 50.0408 5.91843C50.0408 5.5276 50.2001 5.12229 50.5185 4.89069H50.533ZM40.6609 13.8219L39.9516 15.7182H39.8792C39.8068 15.3274 39.5607 14.6181 39.2423 13.8219L35.5366 4.81831H31.9033V19.1923H34.2773V8.37923C34.2773 8.1621 34.2483 7.95945 34.2338 7.78574C34.2194 7.65546 34.2049 7.53966 34.2049 7.42386H34.2773C34.3352 7.81469 34.422 8.11867 34.5089 8.37923C34.5378 8.49503 34.5812 8.59636 34.5957 8.68321L39.0107 19.1778H40.6753L45.0903 8.59636C45.1192 8.50951 45.1482 8.3937 45.1771 8.24895C45.235 8.01735 45.3074 7.74232 45.3943 7.48176H45.4666C45.3943 8.50951 45.3943 9.4504 45.3943 10.0873V19.2502H47.9274V4.81831H44.4534L40.6609 13.8219ZM50.3014 8.84244H52.7477V19.1923H50.3014V8.84244ZM61.5921 8.75559C61.1144 8.68321 60.6512 8.59636 60.1735 8.59636C59.0734 8.59636 58.0457 8.82796 57.1771 9.30565C56.3086 9.78333 55.5993 10.4926 55.2085 11.2743C54.7308 12.1428 54.4992 13.0837 54.4992 14.2707C54.4992 15.2984 54.7308 16.1669 55.1361 16.9486C55.6138 17.7447 56.1639 18.3672 57.0324 18.758C57.8285 19.1488 58.7694 19.3949 59.7972 19.3949C60.9841 19.3949 62.0119 19.1633 62.7935 18.6856V16.4709L62.7212 16.5433C62.3303 16.7749 61.925 17.021 61.5342 17.1802C61.0565 17.3394 60.6657 17.4118 60.3472 17.4118C59.3195 17.4118 58.6102 17.0933 58.0601 16.5433C57.5101 15.9064 57.1916 15.1247 57.1916 14.097C57.1916 13.0692 57.5101 12.2007 58.0601 11.5638C58.6102 10.9269 59.4063 10.6229 60.3472 10.6229C61.1434 10.6229 62.0119 10.8545 62.7212 11.419L62.7935 11.4914V9.11747C62.4751 8.95824 62.0843 8.79901 61.6066 8.72663L61.5921 8.75559ZM68.1349 9.23327C68.6126 8.84244 69.1627 8.68321 69.7996 8.68321C70.1904 8.68321 70.5089 8.75559 70.5957 8.84244H70.6681V11.2164L70.5957 11.144C70.5233 11.0716 70.2773 10.9848 70.0457 10.9124C69.9299 10.9124 69.8141 10.8979 69.6838 10.869C69.568 10.8545 69.4522 10.8255 69.3219 10.8255C68.685 10.8255 68.1349 11.144 67.7441 11.6941C67.2664 12.2441 67.1072 13.0403 67.1072 13.9088V19.1923H64.7332V8.84244H67.1796V10.6518C67.4112 10.0149 67.7296 9.55173 68.1204 9.23327H68.1349ZM76.5016 8.61083C74.7646 8.61083 73.346 9.08852 72.3906 10.1163C71.3629 11.144 70.8852 12.4902 70.8852 14.1404C70.8852 15.7906 71.3629 17.0644 72.3038 18.0053C73.2447 18.9462 74.5909 19.4239 76.1687 19.4239C77.9057 19.4239 79.2519 18.9462 80.1928 17.9184C81.2206 16.8907 81.6982 15.5445 81.6982 13.8943C81.6982 12.2441 81.2206 10.9703 80.2797 10.0294C79.4835 9.08852 78.1518 8.61083 76.4872 8.61083H76.5016ZM76.4292 17.4407C77.2978 17.4407 78.0071 17.1223 78.4847 16.5722C79.0348 15.9353 79.194 15.0668 79.2809 14.1259C79.2809 13.0258 78.9624 12.1573 78.4847 11.5927C78.0071 11.0282 77.2978 10.7242 76.4292 10.7242C75.4884 10.7242 74.8514 10.9558 74.3014 11.5927C73.7513 12.1428 73.5052 13.0113 73.5052 14.1259C73.5052 15.1537 73.7369 16.0222 74.3014 16.5722C74.7791 17.1223 75.5607 17.4407 76.4292 17.4407ZM87.3291 13.0982C86.533 12.7797 86.0698 12.5481 85.8237 12.302C85.6645 12.1428 85.5052 11.8243 85.5052 11.5059C85.5052 11.1874 85.5776 10.9558 85.8961 10.7966C86.2145 10.6374 86.533 10.4781 86.9962 10.4781C87.387 10.4781 87.8647 10.5505 88.2556 10.6374C88.574 10.6953 88.8925 10.869 89.1675 11.0137C89.2399 11.0427 89.2978 11.0861 89.3557 11.1151L89.428 11.1874V8.90034H89.3557C89.2399 8.87139 89.1241 8.82796 88.9938 8.78454C88.7767 8.71216 88.5451 8.62531 88.2556 8.58188C87.7779 8.50951 87.387 8.50951 87.0686 8.50951C85.8816 8.50951 84.9407 8.82796 84.1446 9.37802C83.3484 9.92808 83.0444 10.7242 83.0444 11.6651C83.0444 12.1428 83.1168 12.606 83.2761 12.9245C83.4353 13.2429 83.6669 13.6338 84.0722 13.8654C84.3907 14.097 84.9407 14.4154 85.5776 14.7339C85.7658 14.8062 85.9395 14.8786 86.0987 14.951C86.4172 15.0813 86.6777 15.1826 86.837 15.2839C87.0686 15.4432 87.3147 15.6024 87.387 15.7616C87.4594 15.9208 87.5463 16.0801 87.5463 16.3117C87.5463 17.021 86.9962 17.3394 85.8816 17.3394C85.4908 17.3394 85.0131 17.267 84.5354 17.1078C83.9853 16.9486 83.5077 16.717 83.1168 16.3985L83.0444 16.3262V18.7001H83.1168C83.5077 18.8593 83.913 19.0186 84.463 19.0909C84.5499 19.0909 84.6223 19.1199 84.6946 19.1199C85.1434 19.1923 85.5487 19.2502 85.8816 19.2502C87.141 19.2502 88.1687 18.9317 88.9648 18.3816C89.761 17.7447 90.1518 17.0354 90.1518 16.0077C90.1518 15.2984 89.9926 14.6615 89.5149 14.2707C89.3846 14.1983 89.2543 14.1259 89.1241 14.0391C88.6319 13.7496 88.0384 13.3877 87.3147 13.0837L87.3291 13.0982ZM92.6126 10.1018C93.5535 9.07404 94.9865 8.59636 96.7236 8.59636C98.4606 8.59636 99.6476 9.07404 100.516 10.0149C101.457 10.9558 101.935 12.2297 101.935 13.8798C101.935 15.53 101.457 16.8762 100.429 17.904C99.4883 18.9317 98.1422 19.4094 96.4051 19.4094C94.8273 19.4094 93.4811 18.9317 92.5402 17.9908C91.5993 17.0499 91.1217 15.7037 91.1217 14.1259C91.1217 12.4613 91.6717 11.1295 92.6271 10.1018H92.6126ZM98.6922 16.5722C98.2145 17.1223 97.5052 17.4407 96.6367 17.4407C95.6958 17.4407 94.9721 17.1223 94.5089 16.5722C93.9588 16.0222 93.7127 15.1537 93.7127 14.1259C93.7127 13.0258 93.9443 12.1573 94.5089 11.5927C95.0589 10.9558 95.6958 10.7242 96.6367 10.7242C97.5052 10.7242 98.2145 11.0427 98.6922 11.5927C99.1699 12.1428 99.4884 13.0113 99.4884 14.1259C99.416 15.0668 99.1699 15.9353 98.6922 16.5722Z" fill="#787878"/>
<path id="Vector_2" d="M0 -0.00195312H11.6815V11.3611H0V-0.00195312Z" fill="#7C7C7C"/>
<path id="Vector_3" d="M12.9551 -0.00195312H24.6366V11.3611H12.9551V-0.00195312Z" fill="#949494"/>
<path id="Vector_4" d="M0 12.5481H11.6815V23.998H0V12.5481Z" fill="#7B7B7B"/>
<path id="Vector_5" d="M12.9551 12.5481H24.6366V23.998H12.9551V12.5481Z" fill="#BABABA"/>
</g>
<defs>
<clipPath id="clip0_3771_398">
<rect width="115.194" height="24" fill="white" transform="translate(0 -0.00195312)"/>
</clipPath>
</defs>
</svg>
