<svg width="77" height="24" viewBox="0 0 77 24" fill="none" xmlns="http://www.w3.org/2000/svg">
<g id="logo-airbnb-grey" clip-path="url(#clip0_3771_404)">
<path id="Vector" d="M22.2341 17.0306C22.1265 16.7285 22.0007 16.4362 21.8811 16.1654C21.6969 15.7489 21.504 15.3315 21.3174 14.9281L21.3026 14.896C19.6385 11.2922 17.8523 7.63912 15.9938 4.0383L15.9149 3.88542C15.7253 3.51771 15.5293 3.13752 15.3281 2.76394C15.0896 2.29117 14.8002 1.84575 14.465 1.43556C14.0877 0.985429 13.616 0.623413 13.0833 0.375037C12.5506 0.126661 11.9697 -0.00202692 11.3817 -0.00195309C10.7937 -0.00187926 10.2129 0.126955 9.68019 0.375465C9.14754 0.623975 8.67594 0.986112 8.29876 1.43633C7.96396 1.84662 7.67471 2.29194 7.43613 2.76448C7.23324 3.14141 7.03542 3.52513 6.84414 3.89622L6.77088 4.03827C4.91229 7.63935 3.12611 11.2924 1.46195 14.896L1.4377 14.9484C1.25434 15.3453 1.06476 15.7557 0.883641 16.1653C0.763953 16.4359 0.638343 16.7279 0.530602 17.0308C0.222016 17.8558 0.123683 18.7445 0.244443 19.6169C0.372507 20.4985 0.729092 21.3316 1.27888 22.0333C1.82867 22.7351 2.55259 23.2813 3.37894 23.6179C4.0031 23.8705 4.67047 23.9995 5.34396 23.998C5.55552 23.998 5.7669 23.9857 5.97704 23.9612C6.82884 23.8527 7.65036 23.5755 8.39341 23.146C9.36811 22.5984 10.3307 21.7959 11.3823 20.6491C12.4339 21.7959 13.3965 22.5984 14.3712 23.146C15.1142 23.5756 15.9358 23.8527 16.7876 23.9612C16.9977 23.9857 17.2091 23.998 17.4207 23.998C18.0941 23.9995 18.7614 23.8705 19.3856 23.6179C20.2119 23.2813 20.9359 22.7351 21.4857 22.0333C22.0355 21.3316 22.3922 20.4986 22.5203 19.6169C22.6409 18.7444 22.5425 17.8558 22.2341 17.0306ZM11.3823 18.2808C10.0805 16.6307 9.24519 15.0984 8.95209 13.8138C8.83201 13.3324 8.80366 12.8329 8.86854 12.341C8.91976 11.9805 9.05221 11.6362 9.25591 11.3341C9.50656 11.0091 9.82869 10.7458 10.1974 10.5647C10.5661 10.3837 10.9715 10.2895 11.3825 10.2895C11.7935 10.2895 12.1988 10.3837 12.5675 10.5649C12.9362 10.7461 13.2583 11.0093 13.5089 11.3344C13.7126 11.6366 13.8451 11.9809 13.8963 12.3415C13.961 12.8335 13.9326 13.3333 13.8123 13.8148C13.5189 15.0992 12.6838 16.6311 11.3823 18.2808ZM20.9998 19.3997C20.9102 20.0161 20.6609 20.5986 20.2765 21.0892C19.892 21.58 19.3859 21.9619 18.8081 22.1973C18.2238 22.4314 17.5898 22.5143 16.9649 22.4384C16.3153 22.3547 15.6893 22.141 15.1245 21.8098C14.2569 21.3224 13.3787 20.5741 12.3904 19.4764C13.9637 17.5365 14.9461 15.7484 15.3098 14.1558C15.4736 13.486 15.509 12.7915 15.4145 12.1087C15.3287 11.5204 15.1103 10.9593 14.7758 10.4675C14.3839 9.93697 13.8727 9.50565 13.2833 9.20842C12.6939 8.9112 12.0428 8.75632 11.3825 8.75632C10.7222 8.75632 10.071 8.91112 9.48159 9.20827C8.89216 9.50542 8.38096 9.93667 7.98909 10.4672C7.65464 10.9588 7.43627 11.5198 7.35039 12.1079C7.25577 12.7905 7.29106 13.4847 7.45442 14.1542C7.81794 15.7475 8.80044 17.536 10.3742 19.4766C9.38596 20.5741 8.50771 21.3224 7.6401 21.8099C7.07535 22.141 6.44939 22.3548 5.7998 22.4384C5.17482 22.5143 4.54077 22.4314 3.95649 22.1973C3.37869 21.9619 2.87253 21.58 2.48812 21.0893C2.10372 20.5986 1.85442 20.0161 1.76492 19.3997C1.67883 18.7731 1.75209 18.1349 1.97797 17.544C2.06383 17.3026 2.16431 17.0658 2.28879 16.7844C2.46489 16.3863 2.65176 15.9817 2.83253 15.5904L2.85681 15.5378C4.51166 11.9545 6.28794 8.3217 8.13639 4.74025L8.20996 4.59767C8.39814 4.23255 8.59276 3.85505 8.78911 3.49027C8.97691 3.1143 9.20424 2.75933 9.46726 2.43135C9.70029 2.14982 9.99279 1.92315 10.3238 1.76755C10.6548 1.61194 11.0162 1.53124 11.382 1.53121C11.7479 1.53118 12.1093 1.61183 12.4403 1.76738C12.7713 1.92293 13.0638 2.14955 13.2969 2.43104C13.5601 2.75877 13.7875 3.11363 13.9751 3.48958C14.1697 3.85111 14.3626 4.22522 14.5492 4.58698L14.6282 4.74041C16.4766 8.32147 18.2528 11.9542 19.9079 15.5381L19.9228 15.5704C20.1067 15.9682 20.2968 16.3795 20.4758 16.7845C20.6005 17.0663 20.7011 17.3034 20.7868 17.5438C21.0125 18.1348 21.0858 18.773 20.9998 19.3997Z" fill="#787878"/>
<path id="Vector_2" d="M31.4574 18.0877C30.8581 18.0877 30.3068 17.9676 29.8033 17.7274C29.2999 17.4871 28.8684 17.1508 28.4848 16.7183C28.1012 16.2859 27.8136 15.7814 27.5978 15.2289C27.3821 14.6523 27.2861 14.0277 27.2861 13.355C27.2861 12.6823 27.4061 12.0337 27.6218 11.4571C27.8375 10.8805 28.1492 10.376 28.5328 9.91957C28.9163 9.48712 29.3718 9.12675 29.8992 8.88652C30.4266 8.6463 30.978 8.52615 31.6013 8.52615C32.2006 8.52615 32.728 8.6463 33.2075 8.91052C33.6869 9.15082 34.0705 9.51112 34.3821 9.96757L34.454 8.79045H36.6596V17.8474H34.454L34.3821 16.5262C34.0705 17.0066 33.6629 17.391 33.1355 17.6793C32.6561 17.9436 32.0807 18.0877 31.4574 18.0877ZM32.0328 15.9256C32.4643 15.9256 32.8478 15.8054 33.2075 15.5892C33.5431 15.349 33.8068 15.0367 34.0226 14.6523C34.2143 14.2679 34.3102 13.8115 34.3102 13.3069C34.3102 12.8024 34.2143 12.346 34.0226 11.9616C33.8308 11.5772 33.5431 11.2649 33.2075 11.0247C32.8718 10.7844 32.4643 10.6883 32.0328 10.6883C31.6013 10.6883 31.2177 10.8085 30.8581 11.0247C30.5225 11.2649 30.2588 11.5772 30.0431 11.9616C29.8513 12.346 29.7554 12.8024 29.7554 13.3069C29.7554 13.8115 29.8513 14.2679 30.0431 14.6523C30.2348 15.0367 30.5225 15.349 30.8581 15.5892C31.2177 15.8054 31.6013 15.9256 32.0328 15.9256ZM40.4233 6.33997C40.4233 6.60423 40.3754 6.84448 40.2554 7.03667C40.1356 7.22886 39.9678 7.39703 39.752 7.51717C39.5363 7.63725 39.2966 7.68532 39.0569 7.68532C38.8171 7.68532 38.5774 7.63725 38.3616 7.51717C38.1458 7.39703 37.9781 7.22886 37.8582 7.03667C37.7383 6.82045 37.6904 6.60423 37.6904 6.33997C37.6904 6.07571 37.7383 5.83547 37.8582 5.64327C37.9781 5.42706 38.1458 5.28291 38.3616 5.16279C38.5774 5.04267 38.8171 4.99463 39.0569 4.99463C39.2966 4.99463 39.5363 5.04267 39.752 5.16279C39.9678 5.28291 40.1356 5.45109 40.2554 5.64327C40.3514 5.83547 40.4233 6.05169 40.4233 6.33997ZM37.8582 17.8234V8.76637H40.2554V17.8234H37.8582ZM46.6562 11.1448V11.1688C46.5364 11.1208 46.3925 11.0967 46.2726 11.0727C46.1288 11.0487 46.0089 11.0487 45.8651 11.0487C45.1939 11.0487 44.6904 11.2408 44.3548 11.6493C43.9952 12.0577 43.8274 12.6343 43.8274 13.379V17.8234H41.4302V8.76637H43.6356L43.7075 10.1358C43.9473 9.65527 44.2349 9.2949 44.6425 9.03067C45.026 8.76637 45.4815 8.6463 46.0089 8.6463C46.1768 8.6463 46.3445 8.6703 46.4884 8.6943C46.5603 8.71837 46.6082 8.71837 46.6562 8.74237V11.1448ZM47.6151 17.8234V5.04267H50.0124V9.91957C50.348 9.48712 50.7316 9.15075 51.2111 8.88652C51.6905 8.6463 52.2179 8.50215 52.8173 8.50215C53.4165 8.50215 53.9679 8.62222 54.4713 8.86252C54.9748 9.10275 55.4063 9.43905 55.7899 9.8715C56.1734 10.3039 56.4611 10.8085 56.6768 11.361C56.8926 11.9376 56.9885 12.5622 56.9885 13.2349C56.9885 13.9075 56.8686 14.5562 56.6529 15.1327C56.4371 15.7093 56.1255 16.2139 55.7419 16.6703C55.3583 17.1028 54.9029 17.4631 54.3755 17.7034C53.8481 17.9436 53.2967 18.0637 52.6734 18.0637C52.0741 18.0637 51.5467 17.9436 51.0672 17.6793C50.5877 17.4391 50.2042 17.0787 49.8926 16.6222L49.8206 17.7994L47.6151 17.8234ZM52.2419 15.9256C52.6734 15.9256 53.057 15.8054 53.4165 15.5892C53.7521 15.349 54.0158 15.0367 54.2316 14.6523C54.4234 14.2679 54.5193 13.8115 54.5193 13.3069C54.5193 12.8024 54.4234 12.346 54.2316 11.9616C54.0158 11.5772 53.7521 11.2649 53.4165 11.0247C53.081 10.7844 52.6734 10.6883 52.2419 10.6883C51.8104 10.6883 51.4268 10.8085 51.0672 11.0247C50.7316 11.2649 50.4679 11.5772 50.2521 11.9616C50.0603 12.346 49.9645 12.8024 49.9645 13.3069C49.9645 13.8115 50.0603 14.2679 50.2521 14.6523C50.4439 15.0367 50.7316 15.349 51.0672 15.5892C51.4268 15.8054 51.8104 15.9256 52.2419 15.9256ZM57.8995 17.8234V8.76637H60.1049L60.1769 9.94357C60.4406 9.51112 60.8002 9.17482 61.2557 8.91052C61.7111 8.6463 62.2385 8.52615 62.8379 8.52615C63.5091 8.52615 64.0844 8.6943 64.5639 9.00667C65.0673 9.31897 65.4509 9.77542 65.7146 10.352C65.9783 10.9285 66.1221 11.6252 66.1221 12.418V17.8474H63.7249V12.7303C63.7249 12.1057 63.581 11.6012 63.2933 11.2408C63.0057 10.8805 62.6221 10.6883 62.1187 10.6883C61.7591 10.6883 61.4474 10.7604 61.1597 10.9285C60.896 11.0967 60.6803 11.3129 60.5125 11.6253C60.3447 11.9135 60.2728 12.2739 60.2728 12.6343V17.8234H57.8995ZM67.3208 17.8234V5.04267H69.7181V9.91957C70.0537 9.48712 70.4372 9.15075 70.9167 8.88652C71.3962 8.6463 71.9236 8.50215 72.5229 8.50215C73.1222 8.50215 73.6736 8.62222 74.177 8.86252C74.6804 9.10275 75.1119 9.43905 75.4954 9.8715C75.8794 10.3039 76.1666 10.8085 76.3826 11.361C76.5986 11.9376 76.6939 12.5622 76.6939 13.2349C76.6939 13.9075 76.5746 14.5562 76.3586 15.1327C76.1426 15.7093 75.8314 16.2139 75.4474 16.6703C75.064 17.1028 74.6085 17.4631 74.0811 17.7034C73.5537 17.9436 73.0023 18.0637 72.3791 18.0637C71.7797 18.0637 71.2523 17.9436 70.7729 17.6793C70.2934 17.4391 69.9098 17.0787 69.5982 16.6222L69.5263 17.7994L67.3208 17.8234ZM71.9715 15.9256C72.403 15.9256 72.7866 15.8054 73.1462 15.5892C73.4818 15.349 73.7455 15.0367 73.9613 14.6523C74.153 14.2679 74.249 13.8115 74.249 13.3069C74.249 12.8024 74.153 12.346 73.9613 11.9616C73.7695 11.5772 73.4818 11.2649 73.1462 11.0247C72.8105 10.7844 72.403 10.6883 71.9715 10.6883C71.54 10.6883 71.1564 10.8085 70.7969 11.0247C70.4612 11.2649 70.1975 11.5772 69.9818 11.9616C69.766 12.346 69.6941 12.8024 69.6941 13.3069C69.6941 13.8115 69.79 14.2679 69.9818 14.6523C70.1735 15.0367 70.4612 15.349 70.7969 15.5892C71.1564 15.8054 71.516 15.9256 71.9715 15.9256Z" fill="#787878"/>
</g>
<defs>
<clipPath id="clip0_3771_404">
<rect width="76.5" height="24" fill="white" transform="translate(0.194336 -0.00195312)"/>
</clipPath>
</defs>
</svg>
