<svg viewBox="0 0 2000 2000" class="innova-hero-svg" data-v-f0e9e534=""><path d="M1512.1951219512196,1000L1511.011230027545,1006.0679138527792L1507.4656698945128,1012.1620661173927L1501.576753532267,1018.3082773549272L1493.374884676717,1024.5315361255914L1482.9023852245118,1030.855592211509L1470.2132536979502,1037.3025608283122L1455.372857256155,1043.892541357281L1438.4575591469857,1050.6432540185615L1419.5542838900888,1057.5696977684618L1398.7600228626063,1064.6838325410358L1376.181283322966,1071.994288767211L1351.9334842524752,1079.5061068950342L1326.140302716978,1087.2205094036535L1298.932974749491,1095.1347075531285L1270.4495550276547,1103.2417448438873L1240.8341398652444,1111.5303788755346L1210.2360582533518,1119.9850029968743L1178.8090358728064,1128.5856088295682L1146.7103371537878,1137.3077904290737L1114.0998905804513,1146.1227905207159L1081.1394025269917,1154.9975889183177L1047.9914649664183,1163.8950329001595L1014.8186624140877,1172.7740089845893L981.782683454675,1181.5896552178126L949.0434421539471,1190.2936127616563L916.7582145757642,1198.8343152518376L885.080795510817,1207.1573140898086L854.1606803775162,1215.205637535869L824.1422770782024,1222.9201811901557L795.1641523866884,1230.2401271833985L767.3583172075013,1237.1033891530124L740.8495547846655,1243.4470798539892L715.7547956502667,1249.2079980499234L692.1825427922768,1254.3231311489033L670.2323501893391,1258.7301698933331L649.9943575096029,1262.3680312832812L631.548883403644,1265.1773858106737L614.9660794404376,1267.1011850075156L600.305646342829,1268.0851852658836L587.6166137775688,1268.0784638712764L576.9371845474117,1267.033923204173L568.294643621723,1264.908779107479L561.7053320302011,1261.6650294897122L557.1746852344199,1257.2698993349723L554.6973351866131,1251.696258420328L554.2572748871107,1244.9230081985274L555.8280838637002,1236.9354344878582L559.3732126204236,1227.7255228204262L564.8463237423949,1217.2922335337262L572.1916869994191,1205.6417339466097L581.3446254667563,1192.7875852379539L592.2320093783272,1178.7508819426105L604.7727941479445,1163.5603422926552L618.8785987395166,1147.252347960371L634.4543203391869,1129.8709321006397L651.3987810824269,1111.467714942096L669.6054024184239,1092.1017865361862L688.9629025536499,1071.839536638612L709.3560123070952,1050.7544320661095L730.6662046318606,1028.9267422404862L752.772433011994,1006.4432139987906L775.5518739297697,983.39669711087L798.8806686169858,959.8857223008066L822.6346593539947,936.0140339143577L846.6901156615803,911.8900797080848L870.9244458427572,887.6264605550039L895.2168894731544,863.3393431640085L919.4491866087526,839.1478391938851L943.5062196770688,815.1733544053618L967.2766242409303,791.5389117344125L990.6533650710976,768.3684523852365L1013.5342742333829,745.7861192302769L1035.8225481855868,723.9155269659896L1057.427201187464,702.8790236055054L1078.2634726508352,682.7969479918258L1098.253186394543,663.7868880868923L1117.3250601178574,645.9629448321297L1135.4149637636742,629.435006384437L1152.4661258069318,614.3080375078728L1168.4292868715236,600.6813888454569L1183.2628004480928,588.648130707789L1196.9326808528344,578.2944158960031L1209.4125989313234,569.6988759265929L1220.683826368893,562.9320548456928L1230.7351298177637,558.0558846115559L1239.5626163885925,555.123205787504L1247.1695323781005,554.1773370249709L1253.5660174127063,555.2516965290525L1258.7688164786375,558.3694783890487L1262.800952579818,563.5433863257454L1265.6913630141635,570.7754270578038L1267.4745024851327,580.056765123795L1268.189916466979,591.3676406165316L1267.8817884178625,604.6773508948475L1266.5984645836943,619.9442969374043L1264.3919602563733,637.1160945961053L1261.3174514422603,656.1297505958839L1257.4327559597552,676.9119027157581L1252.7978080184462,699.3791231757845L1247.4741303363546,723.4382838486256L1241.5243078264557,748.9869815155461L1235.011466829182,775.9140209974307L1227.998763784611,804.0999536144719L1220.5488871271687,833.4176680659807L1212.7235760478827,863.733030476819L1204.5831596056432,894.9055700314948L1196.1861194807989,926.789206313231L1187.5886794532432,959.233014185336L1178.8444244545478,992.082021797909L1170.0039517913958,1025.1780370760025L1161.1145568675431,1058.360497847402L1152.2199554457368,1091.4673406005584L1143.3600441916305,1124.3358827270704L1134.5707009309713,1156.8037129994111L1125.8836257314647,1188.709584964129L1117.3262235941684,1219.8943078939963L1108.9215292083702,1250.2016299398845L1100.6881738911297,1279.479108154585L1092.6403945004504,1307.5789601262302L1084.7880837818068,1334.358892058035L1077.1368812839016,1359.6828982631948L1069.6883036634172,1383.422027208153L1062.439912892482,1405.455109433022L1055.3855205887753,1425.6694429035606L1048.5154264088314,1443.9614316032805L1041.8166881821646,1460.237173455417L1035.2734212192347,1474.4129939708248L1028.8671240017986,1486.4159223474376L1022.5770272614606,1496.1841070975856L1016.3804632726808,1503.6671686490151L1010.2532520315009,1508.8264867514672L1004.170100861839,1511.6354209206947L998.1050138883621,1512.0794625632298L992.0317077394358,1510.1563178454232L985.9240297959644,1505.8759207965213L979.7563752824501,1499.2603765650974L973.5040995054737,1490.3438351782306L967.1439215819174,1479.1722965806248L960.6543160643891,1465.803348153667L954.0158889639888,1450.3058363294508L947.2117347900698,1432.7594743194013L940.2277713722119,1413.2543883687122L933.0530494000877,1391.8906053237938L925.6800338111058,1368.7774846579582L918.1048543722334,1344.0330984383056L910.3275230396464,1317.7835630320467L902.3521159361248,1290.1623266413192L894.1869180595678,1261.3094170200607L885.8445291246145,1231.370653962982L877.3419292410664,1200.4968313636803L868.7005034454182,1168.8428738151642L859.9460244230182,1136.5669728703444L851.1085930858715,1103.8297081915996L842.2225370025009,1070.7931588966446L833.3262670091167,1037.6200104521188L824.4620926632299,1004.4726624764257L815.6759975293245,971.512342789369L807.0173756088469,938.8982329882284L798.538730541225,906.7866107386102L790.2953395065599,875.3300138443512L782.3448840517639,844.6764310047854L774.7470503381245,814.9685239809503L767.5631015674389,786.3428856761093L760.8554255840663,758.9293383917131L754.6870608696613,732.8502762493706L749.1212043442914,708.2200554743575L744.2207045605907,685.1444359186119L740.0475440252088,663.7200768632584L736.6623145028973,644.034089784713L734.123689252122,626.1636503966977L732.4878962063478,610.1756718955776L731.8081961514448,596.1265409408703L732.1343699566653,584.0619174991604L733.5122188941189,574.01659927071L735.9830820296604,566.0144510064753L739.5833745868033,560.0683986116999L744.3441510751401,556.1804875235184L750.2906968364185,554.3420044467114L757.4421514957044,554.5336611365457L765.8111676130359,556.7258385331029L775.4036076138262,560.878889180113L786.2182818354238,566.9434955054898L798.2467302642659,574.8610812027894L811.4730502547029,584.5642726348362L825.873772218696,595.9774068848105L841.4177849572634,609.0170828080426L858.0663119718595,623.5927511912757L875.7729397491291,639.6073399068055L894.4836986580048,656.9579097579945L914.1371967363158,675.5363365513055L934.664806277493,695.2300147991941L955.990902759061,715.9225783586228L978.0331552859739,737.4946332421157L1000.7028673560646,759.8244978025169L1023.9053663944705,782.7889454889662L1047.540440151365,806.2639453999304L1071.502817715241,830.12539591912L1095.6826925646596,854.2498468111539L1119.9662847672273,878.5152052751472L1144.2364391378126,902.8014216050492L1168.3732558907716,926.9911502843025L1192.2547500652643,950.9703825479254L1215.7575357704739,974.6290466758898L1238.7575310903826,997.8615725359316L1261.1306793072717,1020.5674171698731L1282.7536819507113,1042.6515485131524L1303.5047390555915,1064.0248846503682L1323.2642919198158,1084.6046863380932L1341.915763590328,1104.3149008675953L1359.3462922758117,1123.086455692019L1375.4474528860642,1140.857500602594L1390.1159619317857,1157.5735976039632L1403.2543610843716,1173.187858007241L1414.7716747929023,1187.6610266283622L1424.5840374843995,1200.9615133461175L1432.6152860328784,1213.0653726363967L1438.7975133718369,1223.9562320541918L1443.0715793424133,1233.6251709803441L1445.3875751142934,1242.0705512834925L1445.7052377869395,1249.2978018670005L1443.994312073218,1255.319159373601L1440.2348562841717,1260.1533676050528L1434.4174901704628,1263.8253384784107L1426.5435825307786,1266.36577758281L1416.6253768679896,1267.8107776193003L1404.6860537576176,1268.2013831999245L1390.7597289877865,1267.5831306496345L1374.8913869327018,1266.0055665946863L1357.1367490301764,1263.5217492330848L1337.5620776451503,1260.1877362657774L1316.2439160128304,1256.0620635211233L1293.2687653642543,1251.2052183295432L1268.732700741098,1245.679111700119L1242.740927402714,1239.5465533163858L1215.4072801140321,1232.8707333051343L1186.8536679755643,1225.7147146402292L1157.2094678138283,1218.140939924051L1126.6108694895852,1210.2107561431988L1095.2001768002056,1201.9839608236844L1063.1250679489965,1193.5183728153665L1030.5378198264607,1184.8694307173043L997.5945005943879,1176.089821716775L964.454135281707,1167.229143356645L931.2778492896227,1158.3336004705898L898.2279948614841,1149.4457392354066L865.4672656989271,1140.6042199864494L833.1578049991989,1131.8436301283755L801.4603122485736,1123.1943381511644L770.5331541328967,1114.682389433212L740.5314849183069,1106.3294441815433L711.6063816131172,1098.1527575263385L683.9039991458328,1090.1652014554136L657.5647506848092,1082.3753279464922L632.7225180827685,1074.787472333406L609.5038972551574,1067.4018956291754L588.0274830961989,1060.2149642264567L568.4031983018182,1053.219365106322L550.7316702058224,1046.4043544119222L535.1036594464827,1039.7560369861533L521.5995439668665,1033.2576742339502L510.28886151587045,1026.890017452004L501.2299134600838,1020.6316635730432L494.4694323416712,1014.4594300998049L490.0423152267946,1008.3487458567241L487.9714244852223,1002.2740540661617L488.267457227316,996.2092241616105L490.92888420219214,990.1279686834731L495.94195853328205,984.0042615641011L503.2807942374997,977.8127540981358L512.907514044565,971.5291849119375L524.7724656064925,965.1307802917922L538.8145047665936,958.5966413043698L554.9613441452761,951.9081142440913L573.1299648991242,945.0491410697911L593.2270891227538,938.0065866465397L615.1497099923265,930.7705397865032L638.7856763976688,923.3345852840677L664.0143284789951,915.6960443636243L690.7071801764018,907.8561812017697L718.7286446175142,899.8203734475611L747.936797912726,891.598244942852L778.1841767000794,883.2037591376649L809.3186045843128,874.6552720009338L841.18404244823,865.9755435424861L873.6214574804328,857.1917073855535L906.4697056622794,848.3351981580935L939.56642238936,839.4416368033022L972.7489158692625,830.5506742424992L1005.8550579379295,821.7057941546516L1038.7241669715195,812.9540759637187L1071.1978776391186,804.3459194453301L1103.1209923432461,795.9347326757274L1134.3423093292288,787.7765853460689L1164.715422610252,779.9298297518918L1194.0994890509726,772.454692038617L1222.3599581776934,765.4128365374378L1249.369260535804,758.8669062598203L1275.0074506935628,752.8800428314073L1299.1628012936135,747.5153893357216L1321.732344877812,742.8355797032361L1342.6223605547316,738.9022184207965L1361.7488029403735,735.7753544489751L1379.0376711787617,733.51295331972L1394.4253162375855,732.1703714429054L1407.8586850724305,731.7998366775896L1419.2955006587274,732.4499392215732L1428.7043773005773,734.1651368410821L1436.0648710374837,736.9852784012118L1441.3674653809874,740.9451495674143L1444.6134930204985,746.0740444292634L1445.8149945386817,752.3953666507509L1444.9945155688977,759.9262635773299L1442.1848442078729,768.6772965298688L1437.4286908635636,778.6521502909836L1430.7783130686562,789.8473845412921L1422.2950881220916,802.2522297335668L1412.0490367323132,815.8484296034208L1400.1183011246142,830.6101322079402L1386.588581339179,846.5038310605925L1371.552533684591,863.4883575940516L1355.109135522172,881.5149258345558L1337.3630207382948,900.5272298143599L1318.4237904137267,920.4615938852901L1298.405303320166,941.2471757288462L1277.424950963828,962.8062214891863L1255.6029219538025,985.0543720873118L1233.0614604985967,1007.9010194104131L1209.9241238279253,1031.2497107120969L1186.3150432985426,1054.998599209685L1162.3581938731397,1079.0409385264388L1138.1766765607379,1103.2656183017164L1113.8920182764386,1127.5577379831016L1089.6234934187937,1151.799215523702L1065.4874712757996,1175.8694274370744L1041.596793156947,1199.6458764136635L1018.0601829104254,1223.004882478071L994.9816942233455,1245.8222934674657L972.4601978205529,1267.9742104395982L950.5889113762522,1289.3377234754967L929.4549746345295,1309.7916532280751L909.139071902139,1329.2172934845198L889.7151037319301,1347.4991499582688L871.2499092606172,1364.5256705059792L853.8030403025894,1380.1899619765595L837.4265879346815,1394.3904889431824L822.165061937937,1407.0317496449538L808.0553230938223,1418.024924572369L795.1265679667046,1427.2884932692289L783.400365444242,1434.7488150925042L772.890743955053,1440.3406698697602L763.6043279410754,1444.0077546200644L755.5405218327369,1445.7031327572845L748.691739460639,1445.389632472886L743.0436765400248,1443.0401912969912L738.5756235858685,1438.6381441596136L735.2608163588297,1432.1774526166319L733.0668207072467,1423.6628732650092L731.9559484593536,1413.110063746645L731.8857008343465,1400.545625127705L732.8092356819668,1386.0070798377296L734.6758547289198,1369.5427847577291L737.4315069074515,1351.2117794561827L741.0193037674253,1331.083569983625L745.380042928565,1309.2378490477063L750.452735514395,1285.7641537984887L756.1751335237773,1260.7614628555468L762.48425313952,1234.3377346016234L769.3168900459202,1206.6093891494613L776.6101229276369,1177.7007367563913L784.3018014500875,1147.7433558129942L792.3310151756219,1116.8754238652054L800.6385400488225,1085.2410054412887L809.1672592869763,1052.9893007442886L817.8625557365308,1020.2738595347014L826.6726730014902,987.2517647654379L835.5490429133046,954.082790740172L844.4465771919283,920.9285407453419L853.323921442297,887.9515692540673L862.1436699372142,855.3144939162739L870.872539954371,823.1791026323253L879.4815047595625,791.7054610568388L887.9458846577078,761.0510258949189L896.2453958656263,731.3697693343948L904.3641572932563,702.8113199048714L912.2906556506213,675.5201249679549L920.017669624007,649.6346399232001L927.5421541841024,625.2865490618944L934.8650863989359,602.6000228168461L941.991274423089,581.6910159417955L948.9291316196742,562.6666109104578L955.6904180409198,545.6244105539326L962.2899517448722,530.6519836581269L968.7452926579502,517.8263669217472L975.0764019041679,507.21362633237396L981.3052797102454,498.8684806554386L987.4555851601447,492.83398935076633L993.552241211751,489.1413068362939L999.6210285012685,487.80950461110876L1005.6881715467533,488.84546233272545L1011.7799210203864,492.2438285192048L1017.9221357891741,497.98705111809636L1024.1398684254993,506.0454777539704L1030.4569578624507,516.3775250373324L1036.8956328141373,528.9299158927136L1043.4761294987945,543.6379834454576L1050.2163270929411,560.4260395979204L1057.1314042089562,579.20780602901L1064.233519527141,599.8869049688881L1071.5315195279281,622.357406735609L1079.0306760615358,646.5044306748737L1086.732456262704,672.2047958201169L1094.6343270688294,699.3277172899407L1102.7295963325425,727.7355441653456L1111.0072922366223,757.2845343419838L1119.452082422098,787.8256616344971L1128.0442339315862,819.2054502220722L1136.7596147516572,851.2668313679521L1145.5697374126235,883.8500172217506L1154.4418447739026,916.7933864226954L1163.3390377905387,949.9343761649338L1172.2204447239335,983.1103753631879L1181.0414309298048,1016.1596135682248L1189.75384803126,1048.9220403268264L1198.306320967091,1081.2401897598156L1206.6445710972444,1112.9600252435612L1214.7117732512206,1143.9317592244604L1222.4489443231223,1174.0106433713001L1229.795360751269,1203.0577244756691L1236.6890019727696,1230.9405617445132L1243.067016716012,1257.533901389845L1248.8662087885077,1282.7203047066978L1254.0235388353724,1306.390726139753L1258.4766383864965,1328.4450381696677L1262.1643323792946,1348.7925001995702L1265.0271662399477,1367.3521689883112L1267.0079335300868,1384.0532485573349L1268.052200118688,1398.8353778899013L1268.1088208208816,1411.6488551422863L1267.130444456845,1422.454797493876L1265.0740033249149,1431.22523617396L1261.9011831534174,1437.943146614894L1257.5788696950694,1442.6024140914403L1252.0795682556986,1445.207735611698L1245.381792604545,1445.7744592236063L1237.4704198957172,1444.3283622898339L1228.337008438263,1440.9053706604598L1217.9800753844554,1435.5512210347804L1206.405331660733,1428.3210691485301L1193.62587174171,1419.2790467484829L1179.6623161627967,1408.497770620882L1164.5429049793831,1396.057807221332L1148.3035407081022,1382.0470967100694L1130.9877796262022,1366.5603404262004L1112.6467706561173,1349.6983560362423L1093.3391414217126,1331.567404764825L1073.1308314277453,1312.2784952578095L1052.0948726823974,1291.9466687394065L1030.3111184517877,1270.6902702046796L1007.8659212025202,1248.6302104366268L984.8517611510395,1225.88922365273L961.3668271943418,1202.5911255694616L937.5145523429111,1178.8600766251238L913.403106111092,1154.8198550218644L889.1448466402614,1130.5931441376838L864.8557356336903,1106.300838719477L840.6547194667695,1082.0613740997703L816.6630801002748,1057.9900824841582L793.0037596656367,1034.1985801349908L769.8006628079021,1010.7941890311337L747.1779410627598,987.8793963156218L725.2592637070917,965.5513545545573L704.1670796567741,943.9014255237522L684.021875089853,923.0147699166779L664.941431546891,902.9699850304946L647.040089302475,883.8387921386208L630.4280208122873,865.6857749010808L615.2105190184084,848.5681698001142L601.4873052417065,832.5357092207893L589.3518613044041,817.6305174273175L578.8907904087289,803.8870593178376L570.1832111494226,791.3321414762177L563.3001888598073,779.984964681471L558.304208284025,769.8572266860872L555.248691333293,760.9532737362964L554.1775634229343,753.2702989824513L555.1248716012533,746.7985856183548L558.114457372724,741.5217922966558L563.1596867884956,737.4172780953386L570.2632400289051,734.4564640596011L579.4169623378584,732.6052281156851L590.6017777898239,731.8243299500939L603.7876669793535,732.0698622702207L618.9337093229724,733.2937247120087L635.9881902565846,735.4441165376917L654.8887732008925,738.4660441727012L675.5627357554586,742.3018395659251L697.927269171582,746.8916853221119L721.8898397478767,752.1741425492658L747.3486103930685,758.0866773874217L774.1929202105883,764.5661822378402L802.3038195817442,771.549487792915L831.5546578611066,778.9738620762246L861.8117204516166,786.7774928383227L892.9349117001557,794.8999498158443L924.7784797492309,803.2826235481559L957.1917791988544,811.8691376555482L990.0200671767499,820.605731714285L1023.1053281863677,829.4416121149386L1056.2871229023774,838.329268559437L1089.403455913705,847.2247541370944L1122.2916572761105,856.0879272185263L1154.789272630507,864.8826537164657L1186.734956570658,873.5769685818434L1217.9693639050406,882.1431957297387L1248.3360334528354,890.5580259204787L1277.6822590432575,898.8025524538866L1305.8599424508454,906.8622648670301L1332.7264230962421,914.7270011552907L1358.1452794720897,922.390859360836L1381.9870974160544,929.8520696892585L1404.130200546666,937.1128286218598L1424.461338401385,944.1790967856912L1442.8763280688129,951.0603626238028L1459.2806453864282,957.7693741721606L1473.5899620800708,964.3218414954797L1485.7306255495705,970.7361125600471L1495.6400783543295,977.0328255256965L1503.2672148210809,983.2345406201578L1508.5726725811367,989.3653549155888L1511.5290572436297,995.4505034581152L1512.1210988220662,1001.5159503057147L1510.3457389512414,1007.5879731070733L1506.212148357518,1013.692744903417L1499.7416744748941,1019.855916856605L1490.9677195294105,1026.1022055996814L1479.9355498424693,1032.4549888707L1466.7020375268428,1038.9359130272305L1451.3353361647294,1045.564515948033L1433.9144924625634,1052.3578687104432L1414.5289962697511,1059.3302392881217L1393.278271725525,1066.4927813448444L1370.2711126573474,1073.853251007249L1345.6250656933462,1081.4157542842902L1319.4657648680168,1089.1805275651795L1291.9262217928156,1097.1437533724004L1263.1460757294974,1105.2974132740114L1233.2708081422686,1113.6291795716788L1202.4509265138263,1122.1223470799368L1170.8411223883686,1130.755806000202L1138.5994087511397,1139.5040565722927L1105.8862419675795,1148.3372658590429L1072.8636335854412,1157.2213666883888L1039.69425734948,1166.118198444473L1006.5405567907007,1174.985689067285L973.5638587301045,1183.7780772916315L940.9234979812518,1192.4461738331077L908.7759584466193,1200.9376599137368L877.2740356807487,1209.1974212152709L846.5660258391147,1217.1679150561727L816.7949457469208,1224.789568311062L788.0977886074503,1232.0012033311684L760.604819627223,1238.7404888828428L734.4389155661427,1244.9444129004582L709.7149519272994,1250.549773651591L686.5392411848159,1255.493685737943L665.0090251115112,1259.7140972061693L645.2120239130946,1263.1503139200752L627.226044504919,1265.7435272502828L611.118649883083,1267.4373410704989L596.946891146719,1268.1782940113012L584.7571033251019,1267.9163729136108L574.5847657545626,1266.6055134446178L566.4544273386266,1264.2040838891548L560.3796966132439,1260.6753482089566L556.3632961299531,1255.9879045706302L554.3971802661054,1250.1160956796996L554.462715175511,1243.04038742218L556.5309192075774,1234.7477125055157L560.5627617507325,1225.231776006337L566.5095180990745,1214.4933199719164L574.3131776020326,1202.5403444838403L583.9069020375129,1189.388282874533L595.2155308516724,1175.0601290880645L608.1561296347946,1159.5865154940473L622.6385779546906,1143.0057397952305L638.5661924479009,1125.3637400135208L655.8363808762874,1106.7140168930648L674.3413226933367,1087.1175034204346L693.9686715318226,1066.6423815283233L714.6022749228248,1045.3638464180206L736.1229064863926,1023.3638193045748L758.4090057962635,1000.7306097546787L781.3374211154644,977.5585291480887L804.784150225908,953.9474571464891L828.6250746331881,930.0023633965139L852.736682516788,905.8327870238932L876.9967759154945,881.5522767907509L901.2851577865384,857.2777950860994L925.4842947540939,833.1290891980134L949.4799515666131,809.2280335731097L973.1617935117723,785.6979470026886L996.4239532905618,762.6628888837643L1019.1655591268265,740.2469388852671L1041.2912211828825,718.5734645040395L1062.7114736640103,697.7643811201968L1083.3431703221272,677.9394092563773L1103.109831409623,659.2153338092012L1121.9419404856285,641.705270053698L1139.7771898366327,625.5179412216945L1156.5606736385453,610.7569724235066L1172.2450283557635,597.5202056183675L1186.7905202417787,585.8990402434615L1200.1650801728968,575.9778039844032L1212.3442864091367,567.8331580125237L1223.3112962319537,561.533540826963L1233.0567277544774,557.1386546237575L1241.578493534282,554.6989978709048L1248.881587938982,554.2554474994836L1254.977830518949,555.8388938277956L1259.885567927246,559.4699310202114L1263.629337192503,565.1586055467859L1266.2394933941462,572.9042247560008L1267.75180500957,582.695227303425L1268.207020398133,594.5091167960629L1267.650409055851,608.3124596181488L1266.1312814165265,624.060947501704L1263.7024910887235,641.699524997006L1260.4199235029344,661.1625815867442L1256.3419749989607,682.3742077759428L1251.5290264097844,705.2485140802823L1246.042915194836,729.6900114310677L1239.9464101429567,755.5940511182978L1233.3026926036487,782.847322007005L1226.1748481151858,811.3284023884294L1218.6253721804328,840.9083634695698L1210.7156937969137,871.4514211643033L1202.5057201777634,902.8156325291021L1194.0534059062345,934.8536328882901L1185.4143495496808,967.4134094201991L1176.6414205212827,1000.3391067278328L1167.7844187208448,1033.4718596979385L1158.8897692118449,1066.6506487618146L1150.0002539024906,1099.7131725114161L1141.1547818961376,1132.4967324960674L1132.388199863104,1164.8391249298195L1123.7311434642127,1196.5795339772421L1115.209930528481,1227.5594212572937L1106.84649635581,1257.6234062106735L1098.6583711826463,1286.6201320161092L1090.65869951691,1314.4031118147902L1082.8563007203356,1340.8315501097086L1075.2557698942678,1365.7711343467881L1067.8576178111375,1389.094791857064L1060.6584483306408,1410.683407542304L1053.6511714492829,1430.426497919448L1046.8252498564982,1448.2228374001972L1040.16697661201,1463.981032969856L1033.6597813193937,1477.62004374173L1027.2845619516104,1489.0696421985206L1021.0200392871836,1498.270814287701L1014.8431307422128,1505.1760959117876L1008.7293402346723,1509.7498437441375L1002.6531605946109,1511.9684387040597L996.5884849378059,1511.8204208388784L990.5090233518307,1509.3065547825704L984.3887212027969,1504.4398253879342L978.2021753586934,1497.245363559179L971.9250446411427,1487.760302741606L965.5344508615686,1476.0335669518465L959.0093668698496,1462.1255916532511L952.3309881429975,1446.107979193679L945.4830845674879,1428.0630909245624L938.4523292207955,1408.0835785079694L931.2286011341927,1386.2718572902068L923.8052592187857,1362.739524973553L916.1793847586251,1337.606729150131L908.3519901169,1311.0014875712022L900.3281915619543,1283.0589653096326L892.1173443973092,1253.920713230857L883.7331388719751,1223.7338724170163L875.193655651954,1192.6503493882262L866.521379948829,1160.8259671334067L857.7431737243445,1128.4195970991773L848.8902057185662,1095.592277388651L839.9978393811975,1062.5063224915373L831.1054791184768,1029.3244299027808L822.2563755993035,996.2087889883724L813.4973911915268,963.3201974246364L804.8787269201154,930.8171904708798L796.453612650992,898.8551882357951L788.2779625052294,867.5856659658101L780.409997795938,837.1553522199179L772.9098400522596,807.7054596011411L765.8390769495473,779.3709524915727L759.2603041999218,752.2798559868397L753.236646671393,726.5526099490482L747.8312621947756,702.3014717963345L743.106831684395,679.6299713243721L739.1250393396174,658.6324205124213L735.9460468085786,639.3934809064613L733.6279652819663,621.98779079663L732.2263295428318,606.479654018397L731.7935780273762,592.922791809047L732.37854295131,581.3601587458975L734.0259545264546,571.8238233827574L736.7759632329312,564.3349137893538L740.6636840236697,558.9036277873513L745.7187662207775,555.5293072689501L751.9649927180014,554.2005755825467L759.4199119311309,554.8955365771596L768.0945057397648,557.5820335158501L777.9928964406595,562.2179657006361L789.1120954863119,568.7516602998683L801.4417965142358,577.1222965358104L814.9642148841901,587.2603790775623L829.6539756344307,599.0882571942789L845.4780514459637,612.5206859578731L862.3957518678355,627.4654255444982L880.3587647090944,643.8238744718102L899.3112501465342,661.491732425319L919.1899877341124,680.3596881734213L939.9245761324773,700.3141279475572L961.437685008062,721.2378595723567L983.6453581829543,743.0108475706937L1006.4573667521252,765.5109544409294L1029.7776105258895,788.6146833079125L1053.5045658053693,812.1979171856696L1077.5317771595228,836.1366501574307L1101.7483905466745,860.3077058774443L1126.0397248133497,884.5894389276554L1150.2878783112335,908.8624147202117L1174.3723671009845,933.0100638222733L1198.1707909616882,956.9193067916501L1221.559523198493,980.4811458485193L1244.4144200404803,1003.5912199684559L1266.6115452470885,1026.1503202629447L1288.0279053963154,1048.0648628138144L1308.5421912121196,1069.2473164451617L1328.0355202032467,1089.6165832482538L1346.3921758315464,1109.0983300191044L1363.5003384055908,1127.6252691226655L1379.252802904948,1145.13738765913L1393.5476789823742,1161.582124174394L1406.2890684649076,1176.914492525595L1417.3877157803981,1191.0971528812963L1426.7616268725465,1204.1004302017514L1434.3366523345585,1215.9022809053376L1440.0470306877824,1226.4882087800322L1443.835887956323,1235.8511315414887L1445.655689939957,1243.9911997694371L1445.4686438643848,1250.9155702695318L1443.2470463880609,1256.6381362063098L1438.9735752667366,1261.1792166326213L1432.6415223183274,1264.565208299843L1424.254965689657,1266.8282028696715L1413.8288798006372,1268.005572860884L1401.3891817281897,1268.1395298515995L1386.9727131891395,1267.2766586182333L1370.6271576857994,1265.4674310254488L1352.4108927874618,1262.765703586192L1332.392777932753,1259.2282026866847L1310.6518785490996,1254.9140015178077L1287.2771276936996,1249.8839927712336L1262.366926822737,1244.200361146196L1236.0286876892628,1237.9260596709646L1208.3783177529058,1231.124293772547L1179.5396518534433,1223.8580169292916L1149.6438332531034,1216.1894416149844L1118.8286474866882,1208.1795690905433L1087.2378127721875,1199.8877414218823L1055.0202310250338,1191.3712189012128L1022.3292037850542,1182.6847858256447L989.3216176041528,1173.8803873430077L956.1571036536399,1165.006799812328L922.9971764911342,1156.109336847226L890.0043570769969,1147.2295929167792L857.3412852483581,1138.4052260723658L825.1698269436868,1129.6697810527726L793.6501815226402,1121.052553695985L762.9399945433552,1112.5784972567426L733.1934813429473,1104.2681708967157L704.5605667163518,1096.1377302813712L677.1860459042532,1088.198959886801L651.2087719830363,1080.4593462932276L626.760874599421,1072.9221914221675L603.9670148102955,1065.586764363484L582.9436805756897,1058.448490139122L563.7985272108813,1051.4991734644268L546.6297668341917,1044.7272552975403L531.5256105513205,1038.1180997145448L518.5637667975693,1031.654308414502L507.81099891748136,1025.316059946154L499.32274469992154,1019.081470558143L493.1428002074912,1012.9269734087115L489.30306984496843,1006.8277127301697L487.82338420468795,1000.7579494287817L488.7113868101002,994.6914745132192L491.9624904547903,988.6020266848102L497.5599034057923,982.4637103909224L505.47472530985874,976.2514106393616L515.6661122121857,969.9412008963578L528.081509671798,963.5107404437138L542.6569525389941,956.9396576513145L559.3174295507954,950.2099157291619L577.9773105027289,943.3061576573033L598.5408333721696,936.2160271517437L620.9026484022688,928.9304627084759L644.9484158086677,921.443961974619L670.5554534457597,913.754813924083L697.593430467571,905.8652965633462L725.9251027420313,897.7818381590713L755.4070855285743,889.5151402615644L785.8906587087689,881.0802610942961L817.2225996700632,872.4966581878236L849.2460387841261,863.7881894541902L881.8013322954635,854.9830722229309L914.7269473430897,846.1138000897738L947.8603537789827,837.2170177616478L981.0389174219886,828.3333544142254L1014.1007893950052,819.5072164084576L1046.8857862362865,810.7865405380821L1079.2362555524926,802.2225092984149L1110.997922090997,793.8692299755188L1142.020709251038,785.7833796518767L1172.1595312266759,778.0238185076992L1201.2750511781528,770.6511740638105L1229.2344010602383,763.7273992608725L1255.9118589955515,757.3153074983467L1281.1894803653388,751.4780879636138L1304.9576790981953,746.2788047652962L1327.11575596646,741.7798835436442L1347.5723710484629,738.0425893636891L1366.2459578798528,735.1264998025644L1383.065077196736,733.0889772201467L1397.9687085645796,731.9846442511281L1410.9064785872565,731.8648665765597L1421.8388247975083,732.777247023289L1430.7370947409436,734.7651350005452L1437.5835801775067,737.8671552144884L1442.3714867346796,742.1167595038459L1445.1048397526774,747.5418055137502L1445.7983274609705,754.1641657710356L1444.47708301496,761.9993705435338L1441.1764072990904,771.0562876596643L1435.9414347655882,781.3368422338984L1428.8267449240973,792.8357789902238L1419.8959224244202,805.5404696010127L1409.2210689804353,819.4307671647504L1396.8822706659985,834.4789096346315L1382.9670243714336,850.6494736834019L1367.5696274407182,867.8993801500483L1350.790534712875,886.1779518634155L1332.735687365554,905.4270242789588L1313.5158181030522,925.58110900004L1293.2457373443249,946.5676098869264L1272.0436051482984,968.3070910876802L1250.030193663641,990.7135959576987L1227.328144907864,1013.6950154716212L1204.0612286661706,1037.153504375041L1180.3536052543523,1060.9859429765067L1156.3290978125133,1085.084442145031L1132.1104786881094,1109.336888757377L1107.8187743290005,1133.627528534611L1083.572592940472,1157.8375829214913L1059.4874789662615,1181.8458963968537L1035.6752982336725,1205.5296103604298L1012.2436573586834,1228.7648595231653L989.2953607401874,1251.4274865358448L966.9279081853256,1273.3937704258944L945.233035902103,1294.541164276147L924.2963032734481,1314.7490374731058L904.196727490877,1333.899417776609L885.0064677783415,1351.8777284185517L866.7905605799799,1368.5735154260647L849.6067067221579,1383.8811603840932L833.5051111926,1397.7005739042884L818.528375810359,1409.9378651507932L804.7114446922824,1420.5059828887897L792.0816020571813,1429.325323667887L780.6585215503928,1436.3243029286664L770.4543659215921,1441.439885025999L761.4739355496381,1444.618068395811L753.7148639825199,1445.8143223515149L747.167858350047,1444.9939722804688L741.816982214108,1442.1325303180765L737.6399781479157,1437.2159689053778L734.6086270835133,1430.2409349831248L732.6891412376912,1421.2149029392779L731.842587221663,1410.1562648050922L732.0253357608271,1397.0943565851428L733.1895342988608,1382.0694200062592L735.2835986360014,1365.132499376626L738.252719655633,1346.3452736568288L742.0393811265473,1325.7798242565011L746.5838845310415,1303.5183394808387L751.8248768611918,1279.6527569578423L757.6998773473563,1254.2843457771298L764.1457991338414,1227.523230461622L771.0994619960691,1199.4878592721614L778.4980923011153,1170.304419709184L786.2798065478892,1140.1062044228627L794.3840749836835,1109.0329310711359L802.75216197897,1077.2300199716378L811.3275400506761,1044.8478336765068L820.056274654204,1012.0408828567612L828.8873771143677,978.9670031133176L837.7731233333944,945.786507533345L846.669336198031,912.661319982165L855.5356299056114,879.7540942611108L864.3356147384515,847.2273243693733L873.0370611347339,815.242451182746L881.6120222299468,783.9589709029833L890.0369143733957,753.5335506385519L898.2925554570035,724.1191564503483L906.3641612259989,695.8641991347757L914.2413000708834,668.9117029216156L921.9178071246746,643.3985021361893L929.39165880667,619.4544707148912L936.6648092613646,597.2017892713775L943.7429904366314,576.7542541888265L950.6354778265342,558.2166329630099L957.3548241692487,541.6840697429338L963.9165636375812,527.2415447126557L970.338889286603,514.9633906309958L976.6423067285092,504.9128694977715L982.8492671873254,497.1418119478605L988.9837832441701,491.6903215903027L995.0710307165224,488.58654611123205L1001.1369402210704,487.84651654930246L1007.2077820487644,489.4740557329964L1013.3097480317891,493.4607564435636L1019.4685341052678,499.7860294380581L1025.7089272611513,508.4172210367673L1032.0544005581348,519.3097995511059L1038.5267197898338,532.4076094044467L1045.1455653241155,547.6431913822346L1051.9281725103199,564.9381670416606L1058.8889939087687,584.2036849178321L1066.0393864294645,605.3409257852902L1073.387326275657,628.241663873363L1080.9371543740872,652.7888805934157L1088.689354739019,678.8574270178476L1096.6403679631158,706.3147310567635L1104.782441756875,735.0215450103177L1113.103520171451,764.8327289346155L1121.5871728395318,795.5980650484253L1130.2125652575648,827.1630982276602L1138.9544708123399,859.3699974863902L1147.7833249281218,892.0584332273693L1156.6653213794843,925.0664649627894L1165.5625504821674,958.2314341574697L1174.4331785422032,991.3908568323998L1183.2316676144692,1024.383310586201L1191.9090342983384,1057.0493107457714L1200.413145982503,1089.23217044459L1208.689052645665,1120.7788395471355L1216.6793520269175,1151.5407174898417L1224.3245857015124,1181.3744352921283L1231.5636633362208,1210.1426022034536L1238.3343121559003,1237.7145126933171L1244.573548430725,1263.9668097584106L1250.2181675936963,1288.7841008132589L1255.20524942206,1312.059522745511L1259.4726745653848,1333.6952530526123L1262.959648578622,1353.6029643303634L1265.6072295213794,1371.7042197538042L1267.3588551158998,1387.9308075742626L1268.1608654162033,1402.2250130507914L1267.9630169302038,1414.539826636927L1266.718984155475,1424.8390876522L1264.3868445375897,1433.097563079166L1260.9295429377223,1439.3009615384444L1256.315331802682,1443.4458829034797L1250.5181833654067,1445.5397044208746L1243.518170366346,1445.6004045984728L1235.301811974895,1443.6563265094078L1225.8623818041704,1439.7458825334652L1215.2001751503462,1433.917202915033L1203.3227328481223,1426.2277308572047L1190.245019414746,1416.743767192212L1175.9895534547275,1405.539967967188L1160.5864886137447,1392.6987985593353L1144.0736437012529,1378.3099481844354L1126.4964809446965,1362.4697088853477L1107.9080316915943,1345.2803232817614L1088.3687692367678,1326.8493055275399L1067.9464288181707,1307.2887400566574L1046.7157751934333,1286.7145628022379L1024.7583185781157,1265.245829645049L1002.16198009291,1243.0039768875972L979.020708228266,1220.1120785575788L955.4340481885357,1196.6941053201301L931.5066663213379,1172.8741897223026L907.3478321687711,1148.775902405881L883.0708609934118,1124.5215438072282L858.7925199309818,1100.2314557156776L834.6324012014115,1076.0233568867593L810.7122660684931,1052.0117067042556L787.1553634736412,1028.3071006574041L764.0857274796028,1005.0157011480761L741.6274578439138,982.2387068694937L719.9039881978892,960.0718637047478L699.0373464337813,938.6050197823105L679.1474119995692,917.9217269991046L660.351174866724,898.0988909818279L642.7620009704733,879.206471106401L626.4889089246269,861.3072318363736L611.6358627831207,844.4565462760909L598.3010855586974,828.7022524661498L586.5763981154655,814.0845625796214L576.546587927048,800.6360248103413L568.28881203636,788.381537381616L561.8720383676107,777.338413747737L557.3565293270242,767.5164977138716L554.7933713872092,758.9183268648408L554.2240540827931,751.5393423720554L555.6801015533033,745.3681429427929L559.1827594552576,740.3867803890164L564.7427397310998,736.5710940259722L572.3600253699013,733.8910808657461L582.0237369261539,732.3112983491974L593.7120621807164,731.7912961628547L607.3922499345413,732.2860735166778L623.0206685238951,733.746558114989L640.5429292378062,736.120102937449L659.8940744072958,739.350996860154L680.9988295241474,743.3809850894831L703.7719183373288,748.1497953531818L728.1184394703828,753.5956657946947L753.9343027057719,759.6558705475734L781.1067226951282,766.2672390266457L809.5147674799094,773.3666650609639L839.0299588478772,780.8916021095052L869.5169212092853,788.7805409433083L900.8340753552116,796.9734663460869L932.8343731608843,805.4122895778232L965.366069021755,814.0412535612638L998.2735235605662,822.8073079875869L1031.3980349222363,831.6604517933537L1064.5786927809095,840.5540407339483L1097.6532500217838,849.4450580672567L1130.4590069301125,858.2943466629938L1162.8337026223771,867.0668011657831L1194.6164083903568,875.7315191613555L1225.6484175984729,884.2619106228077L1255.7741267784525,892.6357652452919L1284.841902603289,900.8352776103638L1312.704929494078,908.8470304530468L1339.2220327188372,916.6619366330998L1364.2584719804454,924.2751407345503L1387.6867006612952,931.6858815319271L1409.3870860934767,938.8973168655774L1429.248586454437,945.9163127596781L1447.1693801473743,952.7531988929821L1463.0574438117078,959.4214927920265L1476.8310754197623,965.9375953574139L1488.4193592495085,972.3204605543547L1497.7625698775685,978.5912422971552L1504.812512709554,984.7729217323129L1509.5327989535717,990.8899182752423L1511.8990533451613,996.9676878800897L1511.8990533451613,1003.0323121199123L1509.5327989535717,1009.1100817247597L1504.8125127095545,1015.2270782676867L1497.7625698775698,1021.4087577028466L1488.4193592495087,1027.6795394456472L1476.8310754197626,1034.0624046425878L1463.057443811708,1040.5785072079752L1447.1693801473748,1047.2468011070196L1429.24858645444,1054.0836872403231L1409.3870860934785,1061.102683134422L1387.6867006612956,1068.3141184680742L1364.2584719804458,1075.724859265451L1339.2220327188377,1083.3380633669015L1312.7049294940784,1091.1529695469542L1284.8419026032916,1099.1647223896355L1255.7741267784572,1107.3642347547081L1225.6484175984735,1115.7380893771929L1194.6164083903575,1124.268480838645L1162.8337026223776,1132.9331988342174L1130.459006930113,1141.7056533370064L1097.653250021789,1150.5549419327422L1064.57869278091,1159.4459592660517L1031.3980349222365,1168.3395482066462L998.2735235605711,1177.1926920124115L965.3660690217554,1185.9587464387357L932.8343731608891,1194.5877104221747L900.8340753552117,1203.0265336539123L869.5169212092896,1211.2194590566894L839.0299588478731,1219.1083978904953L809.5147674799094,1226.6333349390352L781.1067226951304,1233.7327609733538L753.9343027057718,1240.3441294524255L728.1184394703859,1246.4043342053028L703.7719183373285,1251.8502046468168L680.9988295241469,1256.6190149105155L659.8940744072979,1260.6490031398434L640.5429292378058,1263.8798970625494L623.0206685238966,1266.2534418850084L607.3922499345406,1267.7139264833204L593.7120621807171,1268.2087038371428L582.0237369261531,1267.688701650801L572.3600253699005,1266.1089191342521L564.7427397311004,1263.4289059740279L559.1827594552567,1259.613219610982L555.6801015533024,1254.6318570572055L554.2240540827921,1248.460657627943L554.7933713872073,1241.081673135158L557.3565293270221,1232.4835022861275L561.8720383676098,1222.6615862522615L568.2888120363573,1211.6184626183835L576.5465879270469,1199.3639751896574L586.5763981154623,1185.9154374203788L598.3010855586964,1171.297747533849L611.6358627831196,1155.543453723908L626.4889089246255,1138.6927681636278L642.7620009704722,1120.7935288935982L660.3511748667202,1101.9011090181737L679.1474119995682,1082.0782730008946L699.0373464337772,1061.3949802176917L719.9039881978852,1039.9281362952545L741.6274578439129,1017.7612931305059L764.0857274795986,994.9842988519267L787.1553634736406,971.6928993425958L810.712266068489,947.9882932957476L834.6324012014111,923.9766431132408L858.7925199309814,899.7685442843227L883.0708609934097,875.4784561927737L907.347832168771,851.2240975941195L931.5066663213346,827.1258102777015L955.4340481885357,803.3058946798704L979.0207082282631,779.8879214424253L1002.1619800929072,756.9960231124069L1024.7583185781161,734.7541703549518L1046.715775193431,713.2854371977662L1067.9464288181712,692.7112599433436L1088.3687692367662,673.150694472464L1107.9080316915952,654.7196767182397L1126.4964809446974,637.5302911146536L1144.0736437012515,621.690051815566L1160.5864886137458,607.3012014406659L1175.989553454727,594.4600320328152L1190.2450194147473,583.2562328077889L1203.3227328481225,573.7722691427981L1215.200175150347,566.0827970849696L1225.862381804172,560.254117466536L1235.301811974896,556.343673490594L1243.5181703663477,554.3995954015284L1250.518183365408,554.4602955791268L1256.3153318026837,556.5541170965212L1260.929542937724,560.6990384615563L1264.3868445375895,566.9024369208332L1266.7189841554768,575.1609123478006L1267.963016930206,585.4601733630723L1268.1608654162048,597.7749869492093L1267.3588551159023,612.0691924257361L1265.607229521382,628.2957802461943L1262.9596485786233,646.397035669637L1259.4726745653875,666.3047469473854L1255.2052494220616,687.9404772544892L1250.218167593699,711.2158991867382L1244.573548430726,736.0331902415895L1238.3343121559014,762.2854873066829L1231.5636633362215,789.857397796544L1224.3245857015136,818.6255647078716L1216.67935202692,848.459282510154L1208.6890526456657,879.2211604528644L1200.413145982505,910.7678295554051L1191.9090342983402,942.9506892542238L1183.2316676144694,975.6166894137986L1174.4331785422048,1008.6091431675952L1165.5625504821676,1041.7685658425298L1156.6653213794855,1074.9335350372055L1147.7833249281218,1107.9415667726303L1138.9544708123394,1140.6300025136093L1130.2125652575658,1172.8369017723371L1121.5871728395314,1204.4019349515743L1113.103520171451,1235.1672710653797L1104.7824417568743,1264.9784549896817L1096.6403679631155,1293.685268943232L1088.6893547390187,1321.142572982148L1080.937154374086,1347.211119406584L1073.387326275656,1371.758336126633L1066.039386429463,1394.6590742147093L1058.8889939087676,1415.7963150821645L1051.9281725103183,1435.061832958339L1045.1455653241137,1452.3568086177652L1038.5267197898343,1467.5923905955522L1032.054400558133,1480.6902004488938L1025.7089272611497,1491.582778963231L1019.4685341052659,1500.2139705619418L1013.3097480317872,1506.5392435564356L1007.2077820487625,1510.525944267003L1001.1369402210685,1512.1534834506974L995.0710307165205,1511.4134538887683L988.9837832441682,1508.3096784096974L982.8492671873234,1502.8581880521406L976.6423067285074,1495.0871305022288L970.3388892866012,1485.0366093690045L963.9165636375818,1472.7584552873454L957.3548241692471,1458.3159302570666L950.6354778265328,1441.783367036993L943.7429904366298,1423.245745811174L936.6648092613635,1402.798210728626L929.391658806669,1380.5455292851125L921.9178071246733,1356.6014978638111L914.241300070883,1331.0882970783887L906.3641612259979,1304.1358008652248L898.2925554570033,1275.8808435496564L890.0369143733949,1246.4664493614487L881.6120222299461,1216.0410290970171L873.0370611347347,1184.7575488172565L864.3356147384511,1152.7726756306272L855.5356299056123,1120.2459057388942L846.6693361980309,1087.3386800178355L837.7731233333958,1054.2134924666602L828.8873771143692,1021.0329968866874L820.0562746542043,987.9591171432392L811.3275400506781,955.152166323498L802.7521619789707,922.7699800283624L794.3840749836857,890.9670689288686L786.27980654789,859.8937955771374L778.4980923011162,829.695580290816L771.0994619960697,800.5121407278409L764.1457991338425,772.476769538378L757.699877347359,745.7156542228736L751.8248768611932,720.3472430421575L746.5838845310442,696.481660519164L742.03938112655,674.2201757435014L738.2527196556346,653.6547263431709L735.283598636004,634.8675006233757L733.1895342988626,617.9305799937403L732.0253357608296,602.9056434148582L731.8425872216646,589.8437351949071L732.6891412376929,578.7850970607215L734.608627083513,569.7590650168759L737.6399781479174,562.7840310946211L741.8169822141097,557.8674696819228L747.1678583500486,555.0060277195303L753.7148639825213,554.1856776484836L761.4739355496392,555.3819316041871L770.4543659215935,558.560114974L780.6585215503935,563.6756970713311L792.0816020571826,570.674676332112L804.7114446922824,579.4940171112072L818.5283758103602,590.0621348492059L833.5051111926011,602.2994260957106L849.6067067221566,616.1188396159056L866.7905605799808,631.4264845739341L885.0064677783402,648.1222715814445L904.1967274908778,666.10058222339L924.2963032734463,685.2509625268901L945.2330359021008,705.458835723849L966.9279081853259,726.6062295741046L989.2953607401848,748.5725134641509L1012.2436573586837,771.2351404768339L1035.6752982336693,794.4703896395662L1059.4874789662615,818.1541036031457L1083.572592940472,842.1624170785083L1107.8187743289984,866.372471465387L1132.110478688109,890.6631112426228L1156.3290978125094,914.9155578549655L1180.3536052543516,939.0140570234933L1204.0612286661665,962.8464956249559L1227.32814490786,986.3049845283759L1250.0301936636404,1009.2864040423017L1272.043605148294,1031.6929089123173L1293.245737344324,1053.432390113074L1313.515818103048,1074.418890999958L1332.7356873655528,1094.572975721042L1350.7905347128738,1113.8220481365852L1367.5696274407169,1132.1006198499504L1382.9670243714324,1149.3505263165991L1396.8822706659953,1165.5210903653679L1409.2210689804342,1180.569232835251L1419.8959224244172,1194.4595303989875L1428.8267449240946,1207.1642210097766L1435.941434765587,1218.663157766103L1441.1764072990882,1228.9437123403366L1444.477083014959,1238.0006294564678L1445.7983274609692,1245.8358342289657L1445.1048397526763,1252.4581944862516L1442.3714867346787,1257.8832404961558L1437.5835801775072,1262.1328447855112L1430.737094740943,1265.2348649994565L1421.8388247975086,1267.2227529767133L1410.9064785872558,1268.1351334234419L1397.9687085645808,1268.0153557488743L1383.0650771967335,1266.911022779854L1366.2459578798523,1264.8735001974374L1347.572371048465,1261.9574106363136L1327.1157559664598,1258.2201164563573L1304.957679098198,1253.7211952347066L1281.1894803653386,1248.5219120363877L1255.9118589955513,1242.6846925016546L1229.2344010602405,1236.2726007391282L1201.2750511781528,1229.3488259361907L1172.15953122668,1221.976181492303L1142.0207092510382,1214.2166203481243L1110.9979220910016,1206.1307700244834L1079.2362555524885,1197.7774907015842L1046.8857862362868,1189.2134594619183L1014.1007893950102,1180.4927835915441L981.038917421989,1171.6666455857749L947.8603537789878,1162.7829822383535L914.7269473430902,1153.8861999102262L881.801332295464,1145.0169277770688L849.2460387841287,1136.2118105458105L817.2225996700637,1127.503341812176L785.8906587087738,1118.9197389057042L755.4070855285748,1110.484859738435L725.925102742036,1102.2181618409286L697.5934304675675,1094.1347034366522L670.5554534457602,1086.2451860759159L644.9484158086698,1078.5560380253817L620.9026484022693,1071.0695372915227L598.540833372173,1063.7839728482552L577.9773105027292,1056.6938423426952L559.3174295507956,1049.7900842708366L542.6569525389955,1043.0603423486862L528.0815096717984,1036.4892595562844L515.6661122121875,1030.0587991036405L505.474725309859,1023.7485893606366L497.5599034057934,1017.5362896090758L491.9624904547898,1011.3979733151879L488.71138681010024,1005.3085254867789L487.82338420468784,999.2420505712188L489.30306984496843,993.1722872698285L493.1428002074903,987.0730265912866L499.3227446999214,980.9185294418552L507.8109989174812,974.6839400538441L518.5637667975683,968.3456915854983L531.5256105513201,961.8819002854534L546.629766834189,955.2727447024581L563.7985272108808,948.5008265355716L582.9436805756864,941.5515098608768L603.9670148102982,934.4132356365141L626.7608745994205,927.0778085778312L651.2087719830341,919.5406537067731L677.1860459042528,911.8010401131979L704.5605667163472,903.8622697186285L733.1934813429468,895.7318291032834L762.9399945433547,887.4215027432567L793.6501815226376,878.9474463040159L825.1698269436863,870.330218947227L857.341285248353,861.5947739276348L890.0043570769965,852.7704070832206L922.997176491129,843.8906631527753L956.1571036536442,834.9932001876708L989.3216176041525,826.1196126569926L1022.3292037850504,817.3152141743565L1055.0202310250336,808.6287810987877L1087.2378127721827,800.1122585781198L1118.828647486687,791.8204309094583L1149.6438332530984,783.8105583850186L1179.5396518534385,776.1419830707118L1208.3783177529058,768.8757062274541L1236.0286876892599,762.0739403290371L1262.3669268227366,755.7996388538063L1287.2771276936967,750.1160072287691L1310.6518785491,745.0859984821938L1332.3927779327535,740.7717973133167L1352.41089278746,737.2342964138095L1370.6271576857998,734.5325689745528L1386.9727131891384,732.7233413817692L1401.3891817281904,731.8604701484035L1413.828879800637,731.9944271391194L1424.2549656896572,733.1717971303319L1432.6415223183283,735.4347917001586L1438.9735752667366,738.8207833673794L1443.2470463880625,743.3618637936929L1445.4686438643862,749.0844297304697L1445.655689939958,756.0088002305645L1443.835887956324,764.1488684585129L1440.0470306877837,773.5117912199679L1434.3366523345596,784.0977190946638L1426.7616268725492,795.8995697982489L1417.3877157804004,808.9028471187056L1406.289068464912,823.085507474405L1393.5476789823788,838.4178758256057L1379.252802904949,854.8626123408711L1363.5003384055933,872.3747308773331L1346.3921758315487,890.9016699808965L1328.0355202032506,910.3834167517443L1308.5421912121205,930.752683554839L1288.0279053963163,951.9351371861859L1266.6115452470915,973.8496797370532L1244.4144200404812,996.4087800315443L1221.5595231984973,1019.5188541514777L1198.1707909616898,1043.0806932083492L1174.3723671009895,1066.9899361777225L1150.2878783112383,1091.137585279784L1126.0397248133502,1115.4105610723443L1101.7483905466772,1139.6922941225528L1077.5317771595237,1163.8633498425677L1053.5045658053725,1187.8020828143265L1029.7776105258895,1211.385316692087L1006.4573667521249,1234.4890455590698L983.6453581829564,1256.9891524293032L961.4376850080615,1278.7621404276424L939.9245761324794,1299.6858720524388L919.1899877341118,1319.6403118265766L899.3112501465357,1338.5082675746758L880.3587647090956,1356.176125528185L862.3957518678346,1372.5345744555007L845.4780514459646,1387.4793140421245L829.6539756344291,1400.9117428057189L814.9642148841903,1412.7396209224346L801.4417965142344,1422.8777034641885L789.1120954863104,1431.2483397001306L777.9928964406595,1437.7820342993625L768.0945057397632,1442.4179664841488L759.4199119311297,1445.1044634228385L751.9649927179989,1445.7994244174515L745.7187662207749,1444.470692731048L740.6636840236667,1441.0963722126476L736.7759632329295,1435.6650862106453L734.0259545264535,1428.176176617243L732.378542951307,1418.6398412541016L731.7935780273738,1407.0772081909538L732.2263295428301,1393.5203459816023L733.6279652819647,1378.0122092033694L735.9460468085772,1360.6065190935403L739.1250393396159,1341.3675794875783L743.1068316843923,1320.3700286756302L747.8312621947731,1297.6985282036658L753.2366466713893,1273.4473900509554L759.2603041999182,1247.7201440131644L765.8390769495462,1220.6290475084272L772.909840052258,1192.294540398862L780.4099977959362,1162.844647780083L788.2779625052272,1132.4143340341943L796.4536126509913,1101.144811764205L804.8787269201148,1069.1828095291205L813.4973911915256,1036.6798025753674L822.2563755993032,1003.791211011628L831.1054791184753,970.6755700972242L839.9978393811973,937.4936775084643L848.8902057185651,904.4077226113553L857.7431737243436,871.5804029008291L866.5213799488295,839.174032866594L875.1936556519533,807.3496506117775L883.733138871976,776.2661275829853L892.1173443973092,746.0792867691476L900.3281915619552,716.9410346903678L908.3519901169011,688.9985124287982L916.1793847586251,662.3932708498721L923.805259218787,637.2604750264475L931.2286011341937,613.7281427097971L938.4523292207979,591.916421492032L945.4830845674892,571.9369090754408L952.3309881429989,553.8920208063237L959.0093668698513,537.8744083467491L965.5344508615692,523.9664330481551L971.9250446411456,512.2396972583949L978.2021753586952,502.7546364408225L984.3887212027976,495.56017461206557L990.5090233518314,490.6934452174294L996.5884849378066,488.1795791611218L1002.6531605946128,488.0315612959404L1008.7293402346743,490.25015625586207L1014.8431307422159,494.82390408821215L1021.0200392871855,501.7291857122979L1027.2845619516122,510.9303578014778L1033.6597813193955,522.3799562582699L1040.1669766120106,536.0189670301422L1046.8252498565007,551.7771625998016L1053.6511714492842,569.5735020805491L1060.6584483306415,589.3165924576965L1067.8576178111382,610.9052081429367L1075.255769894268,634.2288656532087L1082.856300720337,659.168449890291L1090.6586995169105,685.5968881852052L1098.6583711826477,713.3798679838892L1106.84649635581,742.3765937893218L1115.2099305284808,772.4405787427013L1123.7311434642133,803.4204660227573L1132.3881998631036,835.1608750701766L1141.1547818961378,867.5032675039309L1150.0002539024897,900.2868274885788L1158.889769211845,933.3493512381862L1167.784418720845,966.5281403020623L1176.6414205212816,999.6608932721633L1185.4143495496803,1032.5865905798005L1194.0534059062327,1065.146367111705L1202.505720177762,1097.1843674708966L1210.7156937969116,1128.5485788356923L1218.6253721804305,1159.091636530426L1226.174848115185,1188.6715976115706L1233.302692603647,1217.152677992992L1239.9464101429544,1244.4059488817018L1246.0429151948333,1270.3099885689292L1251.5290264097841,1294.7514859197183L1256.3419749989603,1317.625792224058L1260.4199235029328,1338.837418413254L1263.702491088722,1358.3004750029945L1266.131281416524,1375.9390524982946L1267.6504090558483,1391.6875403818522L1268.2070203981307,1405.4908832039364L1267.7518050095678,1417.3047726965747L1266.2394933941446,1427.095775244L1263.6293371925021,1434.841394453214L1259.8855679272433,1440.53006897979L1254.9778305189475,1444.1611061722056L1248.8815879389813,1445.7445525005166L1241.5784935342813,1445.3010021290954L1233.0567277544774,1442.8613453762437L1223.3112962319522,1438.466459173038L1212.3442864091362,1432.1668419874788L1200.1650801728947,1424.022196015599L1186.7905202417787,1414.1009597565417L1172.245028355764,1402.4797943816357L1156.5606736385444,1389.2430275764946L1139.7771898366339,1374.4820587783079L1121.9419404856276,1358.2947299463042L1103.1098314096243,1340.784666190803L1083.3431703221263,1322.0605907436225L1062.7114736640096,1302.2356188798028L1041.2912211828846,1281.4265354959634L1019.1655591268261,1259.7530611147336L996.4239532905647,1237.3371111162398L973.1617935117727,1214.3020529973132L949.4799515666164,1190.7719664268943L925.4842947540973,1166.8709108019905L901.2851577865387,1142.722204913901L876.9967759154974,1118.447723209252L852.7366825167894,1094.1672129761077L828.6250746331921,1069.9976366034896L804.7841502259074,1046.0525428535102L781.337421115464,1022.4414708519106L758.4090057962665,999.2693902453237L736.1229064863933,976.6361806954249L714.6022749228289,954.6361535819816L693.9686715318247,933.3576184716762L674.3413226933408,912.882496579567L655.8363808762914,893.2859831069366L638.566192447902,874.6362599864783L622.6385779546931,856.9942602047707L608.1561296347969,840.4134845059513L595.2155308516756,824.9398709119358L583.906902037513,810.6117171254664L574.3131776020327,797.4596555161589L566.5095180990761,785.5066800280838L560.5627617507337,774.7682239936616L556.5309192075792,765.2522874944834L554.4627151755128,756.9596125778176L554.3971802661054,749.8839043203009L556.3632961299543,744.012095429368L560.3796966132459,739.3246517910394L566.4544273386264,735.7959161108444L574.5847657545635,733.3944865553792L584.757103325101,732.0836270863894L596.9468911467196,731.8217059886983L611.1186498830837,732.5626589294982L627.2260445049174,734.2564727497157L645.2120239130951,736.8496860799235L665.0090251115096,740.2859027938302L686.5392411848167,744.5063142620568L709.7149519272965,749.4502263484062L734.4389155661452,755.0555870995398L760.6048196272232,761.2595111171559L788.0977886074459,767.9987966688279L816.7949457469215,775.2104316889379L846.5660258391105,782.832084943825L877.2740356807476,790.8025787847276L908.77595844662,799.0623400862634L940.9234979812459,807.5538261668898L973.5638587301064,816.2219227083692L1006.5405567906957,825.0143109327136L1039.6942573494784,833.8818015555266L1072.8636335854385,842.7786333116105L1105.8862419675838,851.6627341409585L1138.5994087511367,860.4959434277076L1170.8411223883647,869.2441939997973L1202.4509265138245,877.8776529200638L1233.270808142266,886.3708204283204L1263.146075729498,894.702586725989L1291.926221792814,902.856246627601L1319.4657648680136,910.8194724348205L1345.6250656933457,918.584245715711L1370.2711126573454,926.1467489927504L1393.2782717255254,933.5072186551563L1414.5289962697484,940.6697607118805L1433.914492462563,947.6421312895604L1451.3353361647287,954.4354840519676L1466.7020375268398,961.0640869727721L1479.9355498424698,967.5450111293007L1490.967719529409,973.8977944003203L1499.741674474894,980.1440831433994L1506.2121483575177,986.3072550965837L1510.3457389512407,992.4120268929286L1512.1210988220662,998.4840496942849L1511.52905724363,1004.5494965418867L1508.5726725811369,1010.6346450844143L1503.267214821081,1016.7654593798429L1495.640078354329,1022.9671744743054L1485.730625549572,1029.2638874399559L1473.5899620800724,1035.6781585045208L1459.2806453864291,1042.2306258278422L1442.8763280688145,1048.9396373761965L1424.461338401384,1055.8209032143104L1404.1302005466687,1062.8871713781423L1381.9870974160578,1070.1479303107408L1358.1452794720901,1077.6091406391652L1332.7264230962444,1085.2729988447086L1305.8599424508448,1093.1377351329704L1277.6822590432612,1101.1974475461143L1248.336033452836,1109.441974079523L1217.9693639050422,1117.8568042702611L1186.734956570664,1126.4230314181564L1154.7892726305063,1135.1173462835345L1122.2916572761155,1143.912072781473L1089.4034559137056,1152.775245862906L1056.287122902379,1161.6707314405626L1023.1053281863751,1170.5583878850593L990.020067176748,1179.3942682857157L957.1917791988592,1188.13086234445L924.7784797492321,1196.7173764518427L892.9349117001572,1205.1000501841552L861.8117204516145,1213.2225071616772L831.5546578611096,1221.026137923773L802.3038195817472,1228.4505122070834L774.1929202105889,1235.4338177621578L747.3486103930707,1241.9133226125778L721.8898397478749,1247.8258574507336L697.9272691715837,1253.108314677885L675.5627357554617,1257.698160434074L654.888773200892,1261.5339558272972L635.9881902565867,1264.5558834623032L618.9337093229719,1266.706275287991L603.7876669793536,1267.930137729776L590.6017777898222,1268.1756700499025L579.4169623378584,1267.394771884314L570.2632400289049,1265.5435359403957L563.1596867884952,1262.582721904661L558.1144573727232,1258.4782077033426L555.124871601251,1253.2014143816416L554.1775634229339,1246.7297010175482L555.2486913332907,1239.0467262637028L558.3042082840221,1230.1427733139096L563.3001888598048,1220.0150353185284L570.1832111494205,1208.6678585237803L578.890790408728,1196.1129406821622L589.351861304404,1182.3694825726807L601.4873052417031,1167.46429077921L615.2105190184061,1151.431830199887L630.428020812285,1134.314225098918L647.0400893024737,1116.1612078613807L664.9414315468914,1097.0300149695033L684.0218750898493,1076.985230083323L704.1670796567707,1056.0985744762509L725.2592637070908,1034.4486454454423L747.1779410627535,1012.1206036843816L769.8006628079024,989.2058109688656L793.0037596656334,965.8014198650112L816.663080100274,942.0099175158416L840.6547194667683,917.9386259002308L864.8557356336855,893.6991612805274L889.144846640262,869.4068558623156L913.4031061110885,845.1801449781395L937.5145523429113,821.1399233748768L961.3668271943409,797.4088744305398L984.851761151035,774.110776347276L1007.8659212025196,751.3697895633763L1030.3111184517852,729.3097297953245L1052.0948726823976,708.0533312605954L1073.1308314277446,687.7215047421919L1093.3391414217144,668.4325952351746L1112.646770656117,650.3016439637613L1130.9877796262008,633.4396595738023L1148.3035407081036,617.9529032899329L1164.5429049793818,603.9421927786691L1179.6623161627988,591.5022293791181L1193.6258717417113,580.7209532515201L1206.4053316607315,571.6789308514716L1217.9800753844568,564.4487789652208L1228.3370084382655,559.0946293395441L1237.470419895718,555.6716377101662L1245.3817926045472,554.2255407763957L1252.0795682557023,554.7922643883043L1257.57886969507,557.39758590856L1261.9011831534203,562.0568533851072L1265.0740033249156,568.7747638260405L1267.1304444568473,577.5452025061237L1268.1088208208853,588.3511448577154L1268.052200118689,601.1646221100983L1267.0079335300898,615.9467514426628L1265.0271662399518,632.6478310116892L1262.1643323792973,651.207499800428L1258.4766383864992,671.5549618303323L1254.0235388353733,693.609273860246L1248.8662087885084,717.2796952933043L1243.067016716015,742.466098610153L1236.6890019727712,769.0594382554839L1229.7953607512711,796.9422755243302L1222.4489443231228,825.9893566286975L1214.7117732512206,856.0682407755417L1206.6445710972466,887.0399747564356L1198.3063209670925,918.7598102401796L1189.7538480312605,951.0779596731734L1181.0414309298076,983.840386431768L1172.2204447239335,1016.8896246368128L1163.3390377905396,1050.0656238350623L1154.4418447739024,1083.206613577304L1145.5697374126237,1116.1499827782477L1136.7596147516579,1148.7331686320415L1128.044233931586,1180.7945497779285L1119.4520824220986,1212.174338365498L1111.0072922366207,1242.7154656580155L1102.7295963325423,1272.2644558346528L1094.6343270688296,1300.672282710053L1086.7324562627018,1327.7952041798803L1079.0306760615351,1353.4955693251222L1071.531519527926,1377.6425932643897L1064.2335195271405,1400.1130950311108L1057.1314042089546,1420.7921939709909L1050.2163270929389,1439.5739604020773L1043.476129498794,1456.3620165545403L1036.8956328141355,1471.0700841072862L1030.4569578624514,1483.6224749626667L1024.1398684254975,1493.9545222460301L1017.9221357891711,1502.0129488819027L1011.7799210203868,1507.7561714807944L1005.6881715467514,1511.1545376672746L999.6210285012654,1512.1904953888911L993.5522412117504,1510.858693163706L987.4555851601416,1507.1660106492343L981.305279710241,1501.1315193445616L975.0764019041673,1492.7863736676265L968.7452926579474,1482.1736330782553L962.2899517448726,1469.3480163418722L955.6904180409183,1454.3755894460699L948.9291316196706,1437.3333890895426L941.9912744230885,1418.3089840582056L934.8650863989351,1397.399977183159L927.5421541840997,1374.713450938108L920.0176696240067,1350.3653600768034L912.2906556506196,1324.4798750320467L904.3641572932567,1297.1886800951315L896.245395865625,1268.6302306656037L887.945884657707,1238.9489741050857L879.4815047595634,1208.2945389431673L870.8725399543705,1176.8208973676758L862.143669937215,1144.6855060837288L853.3239214422968,1112.0484307459326L844.446577191929,1079.071459254662L835.549042913306,1045.9172092598337L826.6726730014911,1012.7482352345648L817.8625557365333,979.7261404653051L809.1672592869762,947.0106992557107L800.638540048825,914.7589945587164L792.3310151756234,883.1245761347946L784.3018014500888,852.2566441870075L776.610122927641,822.2992632436157L769.3168900459199,793.3906108505374L762.4842531395225,765.6622653983801L756.1751335237801,739.2385371444539L750.452735514396,714.2358462015122L745.3800429285689,690.7621509522983L741.0193037674298,668.9164300163766L737.4315069074536,648.7882205438192L734.6758547289227,630.4572152422704L732.8092356819676,613.9929201622715L731.8857008343477,599.4543748722933L731.9559484593575,586.8899362533546L733.0668207072479,576.3371267349917L735.260816358832,567.8225473833672L738.5756235858682,561.3618558403869L743.0436765400259,556.9598087030081L748.6917394606417,554.6103675271122L755.5405218327365,554.2968672427148L763.6043279410767,555.992245379934L772.8907439550551,559.6593301302363L783.4003654442427,565.2511849074956L795.1265679667051,572.711506730768L808.0553230938253,581.9750754276288L822.1650619379373,592.9682503550445L837.4265879346806,605.6095110568119L853.8030403025899,619.8100380234412L871.2499092606162,635.474329494017L889.715103731931,652.5008500417284L909.1390719021385,670.7827065154789L929.4549746345263,690.2083467719187L950.5889113762508,710.6622765244985L972.4601978205505,732.0257895603983L994.9816942233455,754.1777065325323L1018.0601829104235,776.9951175219271L1041.5967931569485,800.3541235863376L1065.487471275797,824.1305725629219L1089.6234934187898,848.2007844762937L1113.892018276438,872.4422620168976L1138.1766765607358,896.7343816982817L1162.3581938731402,920.9590614735619L1186.3150432985392,945.0014007903128L1209.9241238279237,968.7502892879033L1233.061460498595,992.0989805895858L1255.6029219537966,1014.945627912685L1277.4249509638285,1037.1937785108144L1298.405303320162,1058.7528242711517L1318.4237904137249,1079.5384061147117L1337.3630207382928,1099.4727701856398L1355.1091355221663,1118.485074165442L1371.5525336845917,1136.511642405949L1386.5885813391756,1153.4961689394067L1400.118301124612,1169.3898677920613L1412.049036732312,1184.1515703965792L1422.2950881220909,1197.7477702664355L1430.7783130686528,1210.15261545871L1437.4286908635618,1221.3478497090166L1442.1848442078708,1231.3227034701335L1444.9945155688974,1240.0737364226693L1445.814994538681,1247.604633349251L1444.6134930204964,1253.9259555707397L1441.3674653809874,1259.054850432586L1436.0648710374826,1263.0147215987904L1428.704377300578,1265.8348631589176L1419.2955006587267,1267.5500607784275L1407.8586850724303,1268.2001633224136L1394.4253162375837,1267.8296285570989L1379.0376711787621,1266.4870466802813L1361.7488029403753,1264.2246455510294L1342.6223605547307,1261.097781579204L1321.7323448778145,1257.1644202967666L1299.1628012936123,1252.4846106642815L1275.007450693564,1247.1199571685943L1249.3692605358094,1241.1330937401835L1222.3599581776925,1234.5871634625619L1194.0994890509764,1227.5453079613856L1164.715422610253,1220.0701702481101L1134.3423093292301,1212.2234146539317L1103.1209923432448,1204.0652673242728L1071.1978776391227,1195.6540805546722L1038.724166971524,1187.045924036283L1005.855057937931,1178.294205845349L972.7489158692653,1169.4493257575016L939.5664223893581,1160.5583631966972L906.4697056622839,1151.6648018419073L873.6214574804385,1142.8082926144477L841.1840424482311,1134.0244564575135L809.3186045843154,1125.344727999067L778.1841767000786,1116.7962408623348L747.9367979127298,1108.4017550571473L718.7286446175156,1100.1796265524365L690.7071801764038,1092.1438187982299L664.014328479001,1084.3039556363742L638.7856763976683,1076.6654147159318L615.1497099923301,1069.229460213496L593.2270891227545,1061.9934133534568L573.1299648991255,1054.9508589302081L554.9613441452806,1048.091885755907L538.8145047665929,1041.40335869563L524.7724656064945,1034.8692197082062L512.9075140445655,1028.470815088059L503.28079423750023,1022.1872459018641L495.9419585332819,1015.9957384358964L490.92888420219265,1009.8720313165226L488.26745722731624,1003.7907758383889L487.9714244852222,997.7259459338352L490.0423152267943,991.6512541432758L494.46943234167145,985.5405699001938L501.2299134600826,979.3683364269533L510.2888615158688,973.1099825479953L521.5995439668658,966.7423257660481L535.1036594464815,960.2439630138473L550.731670205823,953.5956455880765L568.4031983018153,946.7806348936763L588.0274830961978,939.7850357735396L609.5038972551561,932.5981043708232L632.7225180827627,925.2125276665927L657.5647506848097,917.6246720535073L683.903999145829,909.8347985445855L711.6063816131159,901.8472424736598L740.5314849183048,893.6705558184565L770.5331541328894,885.3176105667882L801.4603122485744,876.8056618488356L833.1578049991938,868.1563698716252L865.467265698926,859.3957800135502L898.227994861482,850.554260764594L931.2778492896241,841.6663995294097L964.4541352817031,832.7708566433562L997.5945005943829,823.9101782832264L1030.5378198264593,815.1305692826967L1063.1250679489945,806.4816271846341L1095.200176800207,798.0160391763156L1126.6108694895813,789.7892438568041L1157.2094678138237,781.8590600759508L1186.8536679755634,774.2852853597723L1215.4072801140298,767.1292666948661L1242.7409274027154,760.4534466836146L1268.7327007410952,754.3208882998839L1293.2687653642547,748.7947816704602L1316.2439160128301,743.9379364788786L1337.5620776451472,739.8122637342267L1357.136749030177,736.4782507669156L1374.8913869327007,733.9944334053166L1390.7597289877876,732.4168693503686L1404.6860537576174,731.7986168000768L1416.6253768679892,732.1892223807033L1426.5435825307786,733.6342224171896L1434.4174901704632,736.1746615215914L1440.2348562841735,739.8466323949506L1443.994312073218,744.680840626399L1445.7052377869406,750.7021981330017L1445.3875751142964,757.9294487165108L1443.0715793424147,766.3748290196559L1438.797513371839,776.0437679458105L1432.615286032879,786.934627363603L1424.5840374843997,799.0384866538839L1414.771674792906,812.3389733716392L1403.254361084374,826.8121419927578L1390.1159619317873,842.4264023960374L1375.4474528860655,859.1424993974047L1359.3462922758115,876.9135443079824L1341.915763590332,895.6850991324039L1323.2642919198183,915.3953136619086L1303.504739055593,935.9751153496318L1282.7536819507175,957.3484514868444L1261.1306793072713,979.4325828301276L1238.7575310903862,1002.1384274640661L1215.7575357704752,1025.3709533241104L1192.2547500652654,1049.0296174520736L1168.3732558907775,1073.0088497156923L1144.236439137812,1097.1985783949513L1119.9662847672305,1121.4847947248495L1095.68269256466,1145.7501531888452L1071.5028177152426,1169.8746040808783L1047.5404401513633,1193.7360546000707L1023.9053663944724,1217.2110545110302L1000.7028673560677,1240.1755021974793L978.0331552859737,1262.5053667578827L955.9909027590628,1284.0774216413752L934.6648062774916,1304.769985200806L914.1371967363164,1324.4636634486906L894.4836986580075,1343.0420902420017L875.7729397491288,1360.3926600931925L858.066311971861,1376.4072488087234L841.4177849572626,1390.9829171919573L825.8737722186956,1404.0225931151858L811.4730502546997,1415.4357273651613L798.2467302642654,1425.138918797209L786.2182818354227,1433.056504494506L775.4036076138258,1439.121110819887L765.8111676130346,1443.2741614668948L757.4421514957011,1445.4663388634522L750.2906968364177,1445.657995553288L744.3441510751377,1443.81951247648L739.5833745868035,1439.9316013883001L735.9830820296588,1433.9855489935246L733.5122188941157,1425.9834007292889L732.1343699566645,1415.9380825008402L731.8081961514431,1403.8734590591282L732.4878962063435,1389.8243281044226L734.1236892521199,1373.8363496033044L736.6623145028948,1355.9659102152866L740.0475440252085,1336.2799231367433L744.2207045605898,1314.855564081387L749.1212043442881,1291.7799445256444L754.6870608696596,1267.1497237506335L760.8554255840645,1241.0706616082878L767.5631015674386,1213.6571143238928L774.7470503381244,1185.031476019049L782.3448840517613,1155.3235689952185L790.2953395065581,1124.6699861556488L798.5387305412241,1093.2133892613917L807.0173756088438,1061.1017670117787L815.6759975293247,1028.48765721063L824.4620926632283,995.5273375235793L833.3262670091163,962.3799895478824L842.2225370025004,929.2068411033573L851.1085930858699,896.1702918084085L859.9460244230183,863.433027129655L868.7005034454177,831.1571261848405L877.3419292410671,799.5031686363214L885.8445291246143,768.6293460370204L894.186918059569,738.690582979938L902.3521159361261,709.8376733586852L910.3275230396463,682.2164369679579L918.1048543722351,655.9669015616955L925.6800338111052,631.2225153420437L933.053049400089,608.1093946762055L940.2277713722143,586.7456116312908L947.2117347900696,567.240525680602L954.0158889639906,549.6941636705506L960.6543160643884,534.1966518463341L967.1439215819181,520.8277034193749L973.5040995054763,509.6561648217709L979.7563752824547,500.7396234349028L985.924029795966,494.12407920347914L992.0317077394392,489.8436821545776L998.1050138883622,487.92053743677036L1004.1701008618412,488.36457907930514L1010.253252031505,491.17351324853246L1016.3804632726815,496.3328313509844L1022.5770272614632,503.8158929024121L1028.8671240017984,513.5840776525627L1035.2734212192356,525.587006029173L1041.8166881821678,539.7628265445823L1048.5154264088317,556.0385683967181L1055.3855205887771,574.3305570964401L1062.4399128924847,594.5448905669748L1069.6883036634174,616.5779727918432L1077.1368812839032,640.3171017368038L1084.7880837818063,665.6411079419631L1092.6403945004513,692.4210398737705L1100.6881738911306,720.5208918454109L1108.9215292083695,749.7983700601106L1117.3262235941688,780.1056921060019L1125.8836257314638,811.2904150358685L1134.5707009309717,843.1962870005899L1143.36004419163,875.6641172729248L1152.219955445737,908.5326593994405L1161.1145568675427,941.6395021525962L1170.0039517913935,974.8219629239898L1178.844424454548,1007.9179782020918L1187.5886794532416,1040.7669858146594L1196.1861194807975,1073.210793686768L1204.5831596056425,1105.0944299685032L1212.7235760478793,1136.2669695231743L1220.5488871271689,1166.5823319340197L1227.9987637846089,1195.900046385524L1235.0114668291797,1224.085979002569L1241.524307826455,1251.0130184844522L1247.474130336354,1276.5617161513758L1252.7978080184423,1300.620876824214L1257.4327559597534,1323.0880972842392L1261.3174514422578,1343.870249404116L1264.3919602563728,1362.883905403893L1266.5984645836934,1380.0557030625969L1267.881788417859,1395.3226491051523L1268.1899164669778,1408.6323593834668L1267.4745024851306,1419.9432348762057L1265.6913630141642,1429.2245729421952L1262.8009525798172,1436.456613674255L1258.768816478635,1441.6305216109524L1253.5660174127022,1444.7483034709498L1247.1695323780993,1445.82266297503L1239.5626163885906,1444.8767942124987L1230.7351298177634,1441.944115388444L1220.6838263688924,1437.0679451543097L1209.4125989313206,1430.3011240734095L1196.9326808528342,1421.7055841039983L1183.2628004480935,1411.3518692922157L1168.4292868715236,1399.3186111545424L1152.466125806933,1385.6919624921306L1135.414963763673,1370.5649936155653L1117.3250601178584,1354.0370551678718L1098.2531863945414,1336.2131119131077L1078.2634726508359,1317.2030520081785L1057.4272011874666,1297.1209763944985L1035.8225481855868,1276.0844730340125L1013.5342742333847,1254.213880769725L990.6533650710965,1231.631547614763L967.2766242409328,1208.4610882655913L943.5062196770663,1184.8266455946355L919.4491866087536,1160.8521608061162L895.2168894731565,1136.6606568359937L870.9244458427567,1112.3735394449955L846.6901156615841,1088.1099202919183L822.6346593539961,1063.9859660856425L798.8806686169876,1040.1142776991944L775.551873929776,1016.6033028891344L752.7724330119937,993.5567860012089L730.6662046318647,971.0732577595161L709.3560123070972,949.2455679338897L688.9629025536517,928.160463361389L669.605402418424,907.8982134638118L651.3987810824264,888.5322850579039L634.4543203391904,870.1290678993619L618.878598739519,852.7476520396274L604.7727941479457,836.4396577073458L592.2320093783276,821.2491180573878L581.34462546676,807.2124147620445L572.1916869994213,794.3582660533908L564.8463237423967,782.7077664662722L559.373212620424,772.2744771795745L555.8280838637007,763.0645655121406L554.257274887113,755.0769918014703L554.6973351866131,748.3037415796719L557.174685234421,742.730100665026L561.7053320302005,738.3349705102886L568.2946436217235,735.0912208925206L576.9371845474118,732.9660767958242L587.6166137775704,731.9215361287197L600.3056463428288,731.914814734115L614.9660794404358,732.8988149924803L631.5488834036444,734.8226141893263L649.994357509601,737.6319687167163L670.2323501893394,741.2698301066637L692.1825427922754,745.6768688510956L715.7547956502683,750.7920019500752L740.8495547846658,756.5529201460113L767.3583172074975,762.8966108469854L795.1641523866878,769.7598728165995L824.1422770782002,777.0798188098435L854.1606803775176,784.7943624641305L885.0807955108132,792.842685910189L916.7582145757591,801.1656847481606L949.0434421539455,809.7063872383428L981.7826834546722,818.4103447821867L1014.8186624140887,827.2259910154108L1047.9914649664138,836.1049670998392L1081.1394025269954,845.0024110816832L1114.0998905804495,853.877209479284L1146.710337153785,862.6922095709255L1178.8090358728068,871.4143911704323L1210.236058253347,880.0149970031258L1240.834139865243,888.4696211244672L1270.4495550276527,896.7582551561131L1298.932974749484,904.8652924468722L1326.1403027169786,912.7794905963467L1351.933484252471,920.4938931049664L1376.1812833229646,928.0057112327916L1398.7600228626047,935.3161674589646L1419.5542838900894,942.4303022315403L1438.4575591469861,949.3567459814382L1455.3728572561522,956.1074586427198L1470.2132536979493,962.6974391716907L1482.902385224511,969.144407788491L1493.3748846767173,975.4684638744105L1501.576753532266,981.6917226450764L1507.4656698945118,987.837933882608L1511.0112300275448,993.9320861472235L1512.1951219512196,999.9999999999995" stroke-width="3" stroke="#e6e6e6" fill="none" data-v-f0e9e534=""></path></svg>